<?xml version="1.0" encoding="UTF-8"?>
<!DOCTYPE svg PUBLIC "-//W3C//DTD SVG 1.1//EN" "http://www.w3.org/Graphics/SVG/1.1/DTD/svg11.dtd">
<svg xmlns="http://www.w3.org/2000/svg" version="1.1" width="600px" height="600px" style="shape-rendering:geometricPrecision; text-rendering:geometricPrecision; image-rendering:optimizeQuality; fill-rule:evenodd; clip-rule:evenodd" xmlns:xlink="http://www.w3.org/1999/xlink">
<g><path style="opacity:0.998" fill="#ba2127" d="M 275.5,-0.5 C 291.5,-0.5 307.5,-0.5 323.5,-0.5C 438.213,13.0726 521.38,71.4059 573,174.5C 587.335,206.846 596.169,240.513 599.5,275.5C 599.5,291.833 599.5,308.167 599.5,324.5C 589.537,415.947 547.871,489.114 474.5,544C 463.609,551.61 452.276,558.443 440.5,564.5C 439.448,564.649 438.448,564.483 437.5,564C 442.528,560.67 446.861,556.67 450.5,552C 450.835,550.836 450.835,549.503 450.5,548C 451.044,547.283 451.711,546.783 452.5,546.5C 453.738,547.412 455.072,547.579 456.5,547C 523.702,502.287 566.702,441.621 585.5,365C 585.167,364.667 584.833,364.333 584.5,364C 585.752,357.393 587.419,350.727 589.5,344C 588.89,341.534 589.224,339.034 590.5,336.5C 590.291,335.914 589.957,335.414 589.5,335C 590.486,328.044 591.486,320.878 592.5,313.5C 593.915,265.502 585.081,220.169 566,177.5C 522.28,89.2607 453.613,34.2607 360,12.5C 358.372,13.0966 356.705,12.7633 355,11.5C 353.372,12.0966 351.705,11.7633 350,10.5C 349.667,10.8333 349.333,11.1667 349,11.5C 344.931,10.8276 340.765,9.82764 336.5,8.5C 335.914,8.70931 335.414,9.04265 335,9.5C 252.339,-0.700063 176.839,21.7999 108.5,77C 52.726,126.877 20.0593,186.71 10.5,256.5C -1.76014,339.175 18.7399,415.175 72,484.5C 92.5296,508.682 116.03,529.515 142.5,547C 146.76,549.455 151.093,551.621 155.5,553.5C 158.505,556.318 161.172,559.484 163.5,563C 163.381,564.145 163.048,565.312 162.5,566.5C 80.2642,522.73 28.0976,455.397 6,364.5C 3.26785,351.111 1.10118,337.777 -0.5,324.5C -0.5,308.167 -0.5,291.833 -0.5,275.5C 12.6862,167.19 66.6862,86.3568 161.5,33C 197.495,14.6087 235.495,3.442 275.5,-0.5 Z"/></g>
<g><path style="opacity:1" fill="#be2228" d="M 452.5,546.5 C 451.957,544.657 452.624,542.99 454.5,541.5C 453.833,541.167 453.167,540.833 452.5,540.5C 448.974,543.19 445.307,545.69 441.5,548C 438.754,549.243 436.088,550.243 433.5,551C 437.744,546.083 441.411,541.25 444.5,536.5C 449.581,533.108 454.581,529.441 459.5,525.5C 460.59,526.391 460.59,527.391 459.5,528.5C 460.025,529.192 460.692,529.692 461.5,530C 460.692,530.308 460.025,530.808 459.5,531.5C 460.641,532.425 460.641,533.259 459.5,534C 460,534.167 460.5,534.333 461,534.5C 462.171,533.66 463.338,532.827 464.5,532C 464.167,531.667 463.833,531.333 463.5,531C 465.5,530.333 467.5,529.667 469.5,529C 467.099,528.195 467.266,527.362 470,526.5C 471.073,527.28 472.24,527.113 473.5,526C 472.833,525.667 472.167,525.333 471.5,525C 474.062,525.238 476.396,524.238 478.5,522C 478.167,521.667 477.833,521.333 477.5,521C 479.44,521.178 481.107,520.178 482.5,518C 490.534,509.966 499.367,501.133 509,491.5C 509.667,492.833 510.333,492.833 511,491.5C 513.37,488.392 515.37,485.059 517,481.5C 518.364,482.258 519.531,481.758 520.5,480C 519.346,479.086 519.513,478.253 521,477.5C 521.333,477.833 521.667,478.167 522,478.5C 522.465,477.069 523.299,475.903 524.5,475C 523.72,473.927 523.887,472.76 525,471.5C 525.333,472.167 525.667,472.833 526,473.5C 526.667,471.5 527.333,469.5 528,467.5C 528.333,468.167 528.667,468.833 529,469.5C 529.675,465.844 531.009,462.844 533,460.5C 533.333,461.167 533.667,461.833 534,462.5C 535,460.167 536,457.833 537,455.5C 537.333,455.833 537.667,456.167 538,456.5C 538.333,454.833 538.667,453.167 539,451.5C 539.333,452.167 539.667,452.833 540,453.5C 542.208,450.589 543.542,447.256 544,443.5C 544.667,444.833 545.333,444.833 546,443.5C 546.511,441.122 547.178,438.788 548,436.5C 548.333,436.833 548.667,437.167 549,437.5C 551.077,432.913 553.577,428.079 556.5,423C 556.167,422.667 555.833,422.333 555.5,422C 558.447,420.777 559.447,418.777 558.5,416C 560.301,415.683 560.634,415.016 559.5,414C 561.833,412.757 562.5,411.091 561.5,409C 563.301,408.683 563.634,408.016 562.5,407C 563.687,405.981 564.687,404.814 565.5,403.5C 565.306,401.93 565.306,400.43 565.5,399C 567.394,397.899 568.061,396.566 567.5,395C 569.547,391.536 571.213,387.87 572.5,384C 571.578,381.799 571.578,379.465 572.5,377C 572.944,375.238 573.444,375.405 574,377.5C 574.684,376.216 574.517,375.049 573.5,374C 575.394,372.921 575.727,371.587 574.5,370C 576.394,368.921 576.727,367.587 575.5,366C 577.394,364.921 577.727,363.587 576.5,362C 579.167,361.333 579.167,360.667 576.5,360C 577.167,359.667 577.833,359.333 578.5,359C 578.694,356.903 578.694,354.737 578.5,352.5C 579.025,351.808 579.692,351.308 580.5,351C 580.167,348.667 579.833,346.333 579.5,344C 580.308,343.692 580.975,343.192 581.5,342.5C 580.744,340.549 580.411,338.716 580.5,337C 581.308,336.692 581.975,336.192 582.5,335.5C 582.781,331.219 582.781,326.885 582.5,322.5C 582.667,321.833 582.833,321.167 583,320.5C 583.654,321.696 584.154,321.696 584.5,320.5C 583.833,318.833 583.167,317.167 582.5,315.5C 582.846,314.304 583.346,314.304 584,315.5C 584.167,314.167 584.333,312.833 584.5,311.5C 583.167,303.5 583.167,295.5 584.5,287.5C 584.333,286.167 584.167,284.833 584,283.5C 583.346,284.696 582.846,284.696 582.5,283.5C 583.167,281.833 583.833,280.167 584.5,278.5C 584.154,277.304 583.654,277.304 583,278.5C 582.833,277.833 582.667,277.167 582.5,276.5C 582.781,272.115 582.781,267.781 582.5,263.5C 581.975,262.808 581.308,262.308 580.5,262C 580.411,260.284 580.744,258.451 581.5,256.5C 580.975,255.808 580.308,255.308 579.5,255C 579.833,252.667 580.167,250.333 580.5,248C 579.692,247.692 579.025,247.192 578.5,246.5C 578.694,244.263 578.694,242.097 578.5,240C 575.833,239.333 575.833,238.667 578.5,238C 576.431,237.676 576.098,236.842 577.5,235.5C 576.595,233.362 575.595,231.195 574.5,229C 575.727,227.413 575.394,226.079 573.5,225C 574.517,223.951 574.684,222.784 574,221.5C 573.444,223.595 572.944,223.762 572.5,222C 571.578,219.535 571.578,217.201 572.5,215C 571.213,211.13 569.547,207.464 567.5,204C 568.061,202.434 567.394,201.101 565.5,200C 565.306,198.57 565.306,197.07 565.5,195.5C 564.687,194.186 563.687,193.019 562.5,192C 563.634,190.984 563.301,190.317 561.5,190C 562.5,187.909 561.833,186.243 559.5,185C 560.634,183.984 560.301,183.317 558.5,183C 559.447,180.223 558.447,178.223 555.5,177C 555.833,176.667 556.167,176.333 556.5,176C 553.748,171.344 551.581,166.844 550,162.5C 549.333,161.167 548.667,161.167 548,162.5C 547.178,160.212 546.511,157.878 546,155.5C 545.333,156.833 544.667,156.833 544,155.5C 543.667,153.833 543.333,152.167 543,150.5C 541.245,149.33 540.245,147.663 540,145.5C 539.667,146.167 539.333,146.833 539,147.5C 538.667,145.833 538.333,144.167 538,142.5C 537.667,142.833 537.333,143.167 537,143.5C 536.667,142.167 536.333,140.833 536,139.5C 535.667,139.833 535.333,140.167 535,140.5C 534.667,139.167 534.333,137.833 534,136.5C 533.667,137.167 533.333,137.833 533,138.5C 531.009,136.156 529.675,133.156 529,129.5C 528.195,131.901 527.362,131.734 526.5,129C 527.28,127.927 527.113,126.76 526,125.5C 525.667,126.167 525.333,126.833 525,127.5C 525.238,124.938 524.238,122.604 522,120.5C 521.667,120.833 521.333,121.167 521,121.5C 521.178,119.56 520.178,117.893 518,116.5C 517.667,116.833 517.333,117.167 517,117.5C 508.957,107.108 499.457,97.2744 488.5,88C 489.458,86.8525 489.125,85.8525 487.5,85C 485.275,84.4389 483.275,83.4389 481.5,82C 482.258,80.6361 481.758,79.4695 480,78.5C 479.086,79.6537 478.253,79.487 477.5,78C 477.833,77.6667 478.167,77.3333 478.5,77C 477.069,76.5348 475.903,75.7014 475,74.5C 473.927,75.2797 472.76,75.113 471.5,74C 472.167,73.6667 472.833,73.3333 473.5,73C 471.5,72.3333 469.5,71.6667 467.5,71C 468.167,70.6667 468.833,70.3333 469.5,70C 465.844,69.3246 462.844,67.9913 460.5,66C 461.167,65.6667 461.833,65.3333 462.5,65C 460.167,64 457.833,63 455.5,62C 455.833,61.6667 456.167,61.3333 456.5,61C 454.833,60.6667 453.167,60.3333 451.5,60C 452.167,59.6667 452.833,59.3333 453.5,59C 451.337,58.7547 449.67,57.7547 448.5,56C 446.833,55.6667 445.167,55.3333 443.5,55C 444.833,54.3333 444.833,53.6667 443.5,53C 440.363,52.3989 437.363,51.3989 434.5,50C 433.167,49.3333 433.167,48.6667 434.5,48C 430.823,46.7535 426.989,44.9202 423,42.5C 422.667,42.8333 422.333,43.1667 422,43.5C 421.309,40.734 419.809,40.0673 417.5,41.5C 416.201,40.91 415.368,39.91 415,38.5C 413.57,38.3062 412.07,38.3062 410.5,38.5C 408.36,36.9738 406.026,35.3071 403.5,33.5C 402.284,34.0016 401.117,34.3349 400,34.5C 396.248,31.2588 391.582,28.9254 386,27.5C 385.228,27.6448 384.561,27.9781 384,28.5C 382.333,27.5 380.667,26.5 379,25.5C 377.951,26.5171 376.784,26.6838 375.5,26C 377.595,25.4444 377.762,24.9444 376,24.5C 374.297,25.7002 372.797,25.3668 371.5,23.5C 370.914,23.7093 370.414,24.0426 370,24.5C 367.805,23.405 365.638,22.405 363.5,21.5C 362.158,22.9023 361.324,22.5689 361,20.5C 360.333,23.1667 359.667,23.1667 359,20.5C 356.903,20.3062 354.737,20.3062 352.5,20.5C 351.808,19.9747 351.308,19.3081 351,18.5C 348.667,18.8333 346.333,19.1667 344,19.5C 343.692,18.6919 343.192,18.0253 342.5,17.5C 340.549,18.2561 338.716,18.5894 337,18.5C 336.692,17.6919 336.192,17.0253 335.5,16.5C 331.219,16.2187 326.885,16.2187 322.5,16.5C 321.833,16.3333 321.167,16.1667 320.5,16C 321.696,15.3457 321.696,14.8457 320.5,14.5C 318.833,15.1667 317.167,15.8333 315.5,16.5C 314.304,16.1543 314.304,15.6543 315.5,15C 314.167,14.8333 312.833,14.6667 311.5,14.5C 303.5,15.8333 295.5,15.8333 287.5,14.5C 286.167,14.6667 284.833,14.8333 283.5,15C 284.696,15.6543 284.696,16.1543 283.5,16.5C 281.833,15.8333 280.167,15.1667 278.5,14.5C 277.304,14.8457 277.304,15.3457 278.5,16C 277.833,16.1667 277.167,16.3333 276.5,16.5C 272.115,16.2187 267.781,16.2187 263.5,16.5C 262.808,17.0253 262.308,17.6919 262,18.5C 260.284,18.5894 258.451,18.2561 256.5,17.5C 255.808,18.0253 255.308,18.6919 255,19.5C 252.667,19.1667 250.333,18.8333 248,18.5C 247.692,19.3081 247.192,19.9747 246.5,20.5C 244.263,20.3062 242.097,20.3062 240,20.5C 239.333,23.1667 238.667,23.1667 238,20.5C 237.676,22.5689 236.842,22.9023 235.5,21.5C 234.295,23.1376 232.962,23.4709 231.5,22.5C 229.362,23.405 227.195,24.405 225,25.5C 223.951,24.4829 222.784,24.3162 221.5,25C 223.595,25.5556 223.762,26.0556 222,26.5C 221.228,26.3552 220.561,26.0219 220,25.5C 218.333,26.5 216.667,27.5 215,28.5C 214.439,27.9781 213.772,27.6448 213,27.5C 207.418,28.9254 202.752,31.2588 199,34.5C 197.883,34.3349 196.716,34.0016 195.5,33.5C 192.974,35.3071 190.64,36.9738 188.5,38.5C 186.93,38.3062 185.43,38.3062 184,38.5C 183.309,41.266 181.809,41.9327 179.5,40.5C 178.201,41.09 177.368,42.09 177,43.5C 176.667,43.1667 176.333,42.8333 176,42.5C 172.011,44.9202 168.177,46.7535 164.5,48C 165.833,48.6667 165.833,49.3333 164.5,50C 161.637,51.3989 158.637,52.3989 155.5,53C 156.833,53.6667 156.833,54.3333 155.5,55C 151.744,55.4584 148.411,56.7918 145.5,59C 146.167,59.3333 146.833,59.6667 147.5,60C 145.833,60.3333 144.167,60.6667 142.5,61C 142.833,61.3333 143.167,61.6667 143.5,62C 142.167,62.3333 140.833,62.6667 139.5,63C 139.833,63.3333 140.167,63.6667 140.5,64C 139.167,64.3333 137.833,64.6667 136.5,65C 137.167,65.3333 137.833,65.6667 138.5,66C 136.156,67.9913 133.156,69.3246 129.5,70C 131.901,70.805 131.734,71.6383 129,72.5C 127.927,71.7203 126.76,71.887 125.5,73C 126.167,73.3333 126.833,73.6667 127.5,74C 124.938,73.7616 122.604,74.7616 120.5,77C 120.833,77.3333 121.167,77.6667 121.5,78C 119.56,77.8219 117.893,78.8219 116.5,81C 116.833,81.3333 117.167,81.6667 117.5,82C 107.108,90.0431 97.2744,99.5431 88,110.5C 86.8525,109.542 85.8525,109.875 85,111.5C 84.4389,113.725 83.4389,115.725 82,117.5C 80.6361,116.742 79.4695,117.242 78.5,119C 79.6537,119.914 79.487,120.747 78,121.5C 77.6667,121.167 77.3333,120.833 77,120.5C 76.5348,121.931 75.7014,123.097 74.5,124C 75.2797,125.073 75.113,126.24 74,127.5C 73.6667,126.833 73.3333,126.167 73,125.5C 72.3333,127.5 71.6667,129.5 71,131.5C 70.6667,130.833 70.3333,130.167 70,129.5C 69.3246,133.156 67.9913,136.156 66,138.5C 65.6667,137.833 65.3333,137.167 65,136.5C 64,138.833 63,141.167 62,143.5C 61.6667,143.167 61.3333,142.833 61,142.5C 60.6667,144.167 60.3333,145.833 60,147.5C 59.6667,146.833 59.3333,146.167 59,145.5C 56.7918,148.411 55.4584,151.744 55,155.5C 54.3333,156.833 53.6667,156.833 53,155.5C 52.3989,158.637 51.3989,161.637 50,164.5C 49.0805,164.93 48.2472,165.264 47.5,165.5C 47.7093,166.086 48.0426,166.586 48.5,167C 46.0172,169.619 44.0172,172.619 42.5,176C 42.8333,176.333 43.1667,176.667 43.5,177C 40.734,177.691 40.0673,179.191 41.5,181.5C 40.91,182.799 39.91,183.632 38.5,184C 39.4581,185.147 39.1247,186.147 37.5,187C 38.7908,189.09 38.1242,190.424 35.5,191C 35.8333,191.333 36.1667,191.667 36.5,192C 33.2363,194.057 32.5696,196.39 34.5,199C 31.2588,202.752 28.9254,207.418 27.5,213C 27.6448,213.772 27.9781,214.439 28.5,215C 27.5,216.667 26.5,218.333 25.5,220C 26.5171,221.049 26.6838,222.216 26,223.5C 25.4444,221.405 24.9444,221.238 24.5,223C 24.6448,223.772 24.9781,224.439 25.5,225C 24.405,227.195 23.405,229.362 22.5,231.5C 23.4709,232.962 23.1376,234.295 21.5,235.5C 22.9023,236.842 22.5689,237.676 20.5,238C 23.1667,238.667 23.1667,239.333 20.5,240C 21.6034,241.68 21.2701,243.18 19.5,244.5C 18.5339,248.135 18.5339,251.635 19.5,255C 18.6919,255.308 18.0253,255.808 17.5,256.5C 18.2561,258.451 18.5894,260.284 18.5,262C 16.3423,262.959 16.009,264.459 17.5,266.5C 15.5306,269.697 15.1972,273.03 16.5,276.5C 16.3333,277.167 16.1667,277.833 16,278.5C 15.3457,277.304 14.8457,277.304 14.5,278.5C 15.1667,280.167 15.8333,281.833 16.5,283.5C 16.1543,284.696 15.6543,284.696 15,283.5C 14.8333,284.833 14.6667,286.167 14.5,287.5C 15.8333,295.5 15.8333,303.5 14.5,311.5C 14.6667,312.833 14.8333,314.167 15,315.5C 15.6543,314.304 16.1543,314.304 16.5,315.5C 15.8333,317.167 15.1667,318.833 14.5,320.5C 14.8457,321.696 15.3457,321.696 16,320.5C 16.4978,322.527 16.3311,324.527 15.5,326.5C 17.3137,329.393 17.647,332.393 16.5,335.5C 17.0253,336.192 17.6919,336.692 18.5,337C 18.5894,338.716 18.2561,340.549 17.5,342.5C 18.0253,343.192 18.6919,343.692 19.5,344C 18.5339,347.365 18.5339,350.865 19.5,354.5C 21.2701,355.82 21.6034,357.32 20.5,359C 23.1667,359.667 23.1667,360.333 20.5,361C 22.5689,361.324 22.9023,362.158 21.5,363.5C 23.1376,364.705 23.4709,366.038 22.5,367.5C 23.405,369.638 24.405,371.805 25.5,374C 24.4829,375.049 24.3162,376.216 25,377.5C 25.5556,375.405 26.0556,375.238 26.5,377C 26.3552,377.772 26.0219,378.439 25.5,379C 26.5,380.667 27.5,382.333 28.5,384C 27.9781,384.561 27.6448,385.228 27.5,386C 28.9254,391.582 31.2588,396.248 34.5,400C 34.3349,401.117 34.0016,402.284 33.5,403.5C 35.3071,406.026 36.9738,408.36 38.5,410.5C 38.3062,412.07 38.3062,413.57 38.5,415C 41.266,415.691 41.9327,417.191 40.5,419.5C 41.09,420.799 42.09,421.632 43.5,422C 43.1667,422.333 42.8333,422.667 42.5,423C 44.9202,426.989 46.7535,430.823 48,434.5C 48.6667,433.167 49.3333,433.167 50,434.5C 51.3989,437.363 52.3989,440.363 53,443.5C 53.6667,444.833 54.3333,444.833 55,443.5C 55.3333,445.167 55.6667,446.833 56,448.5C 57.7547,449.67 58.7547,451.337 59,453.5C 59.3333,452.833 59.6667,452.167 60,451.5C 60.3333,453.167 60.6667,454.833 61,456.5C 61.3333,456.167 61.6667,455.833 62,455.5C 62.3333,456.833 62.6667,458.167 63,459.5C 63.3333,459.167 63.6667,458.833 64,458.5C 64.3333,459.833 64.6667,461.167 65,462.5C 65.3333,461.833 65.6667,461.167 66,460.5C 67.9913,462.844 69.3246,465.844 70,469.5C 70.805,467.099 71.6383,467.266 72.5,470C 71.7203,471.073 71.887,472.24 73,473.5C 73.3333,472.833 73.6667,472.167 74,471.5C 73.7616,474.062 74.7616,476.396 77,478.5C 85.7006,487.201 95.8672,497.367 107.5,509C 106.167,509.667 106.167,510.333 107.5,511C 110.608,513.37 113.941,515.37 117.5,517C 116.742,518.364 117.242,519.531 119,520.5C 119.914,519.346 120.747,519.513 121.5,521C 121.167,521.333 120.833,521.667 120.5,522C 121.931,522.465 123.097,523.299 124,524.5C 125.073,523.72 126.24,523.887 127.5,525C 126.833,525.333 126.167,525.667 125.5,526C 127.5,526.667 129.5,527.333 131.5,528C 130.833,528.333 130.167,528.667 129.5,529C 131.5,529.667 133.5,530.333 135.5,531C 135.167,531.333 134.833,531.667 134.5,532C 135.833,532.333 137.167,532.667 138.5,533C 137.833,533.333 137.167,533.667 136.5,534C 137.833,534.333 139.167,534.667 140.5,535C 140.167,535.333 139.833,535.667 139.5,536C 140.833,536.333 142.167,536.667 143.5,537C 143.167,537.333 142.833,537.667 142.5,538C 144.129,538.585 145.629,539.419 147,540.5C 147.5,540.333 148,540.167 148.5,540C 147.917,538.381 147.917,536.548 148.5,534.5C 147.833,533.833 147.167,533.167 146.5,532.5C 146.833,532.167 147.167,531.833 147.5,531.5C 153.36,534.991 159.027,538.658 164.5,542.5C 167.459,545.329 170.125,548.496 172.5,552C 172.167,552.333 171.833,552.667 171.5,553C 172.833,554 174.167,555 175.5,556C 172.298,555.914 169.298,554.914 166.5,553C 162.86,549.354 158.693,546.521 154,544.5C 151.654,547.401 152.487,549.901 156.5,552C 155.944,552.383 155.611,552.883 155.5,553.5C 151.093,551.621 146.76,549.455 142.5,547C 116.03,529.515 92.5296,508.682 72,484.5C 18.7399,415.175 -1.76014,339.175 10.5,256.5C 20.0593,186.71 52.726,126.877 108.5,77C 176.839,21.7999 252.339,-0.700063 335,9.5C 335.414,9.04265 335.914,8.70931 336.5,8.5C 340.765,9.82764 344.931,10.8276 349,11.5C 349.333,11.1667 349.667,10.8333 350,10.5C 351.705,11.7633 353.372,12.0966 355,11.5C 356.705,12.7633 358.372,13.0966 360,12.5C 453.613,34.2607 522.28,89.2607 566,177.5C 585.081,220.169 593.915,265.502 592.5,313.5C 591.486,320.878 590.486,328.044 589.5,335C 589.957,335.414 590.291,335.914 590.5,336.5C 589.224,339.034 588.89,341.534 589.5,344C 587.419,350.727 585.752,357.393 584.5,364C 584.833,364.333 585.167,364.667 585.5,365C 566.702,441.621 523.702,502.287 456.5,547C 455.072,547.579 453.738,547.412 452.5,546.5 Z"/></g>
<g><path style="opacity:1" fill="#c42229" d="M 444.5,536.5 C 444.966,534.799 444.966,533.299 444.5,532C 446.825,529.645 448.158,527.145 448.5,524.5C 443.829,526.018 439.496,528.685 435.5,532.5C 434.275,530.157 434.941,528.323 437.5,527C 437.011,525.236 437.011,523.736 437.5,522.5C 438.326,520.736 439.659,519.402 441.5,518.5C 444.602,516.055 447.935,514.055 451.5,512.5C 451.285,510.821 451.952,509.821 453.5,509.5C 453.055,512.245 452.055,514.745 450.5,517C 451.047,517.925 451.713,518.758 452.5,519.5C 455.681,517.408 458.681,515.075 461.5,512.5C 462.5,512.833 463.167,513.5 463.5,514.5C 463.277,515.967 462.944,517.467 462.5,519C 463.126,519.75 463.626,520.584 464,521.5C 514.089,484.058 547.589,435.558 564.5,376C 566.497,369.683 568.497,363.35 570.5,357C 570.167,356.667 569.833,356.333 569.5,356C 570.5,353 571.5,350 572.5,347C 572.043,346.586 571.709,346.086 571.5,345.5C 583.875,272.392 568.709,204.058 526,140.5C 473.955,70.39 405.621,31.7233 321,24.5C 240.704,18.9473 169.87,43.7806 108.5,99C 45.9328,162.373 17.5994,237.206 23.5,323.5C 30.5318,391.551 59.1985,450.718 109.5,501C 119.686,509.849 130.186,518.349 141,526.5C 143.001,526.166 144.835,526.166 146.5,526.5C 145.167,523.833 143.833,521.167 142.5,518.5C 142.624,517.893 142.957,517.56 143.5,517.5C 147.401,520.617 151.734,522.951 156.5,524.5C 157.89,525.899 158.89,527.566 159.5,529.5C 159.511,531.017 160.177,532.184 161.5,533C 158.833,534.333 158.833,535.667 161.5,537C 161.167,537.333 160.833,537.667 160.5,538C 162.192,539.307 163.525,540.807 164.5,542.5C 159.027,538.658 153.36,534.991 147.5,531.5C 147.167,531.833 146.833,532.167 146.5,532.5C 147.167,533.167 147.833,533.833 148.5,534.5C 147.917,536.548 147.917,538.381 148.5,540C 148,540.167 147.5,540.333 147,540.5C 145.629,539.419 144.129,538.585 142.5,538C 142.833,537.667 143.167,537.333 143.5,537C 142.167,536.667 140.833,536.333 139.5,536C 139.833,535.667 140.167,535.333 140.5,535C 139.167,534.667 137.833,534.333 136.5,534C 137.167,533.667 137.833,533.333 138.5,533C 137.167,532.667 135.833,532.333 134.5,532C 134.833,531.667 135.167,531.333 135.5,531C 133.5,530.333 131.5,529.667 129.5,529C 130.167,528.667 130.833,528.333 131.5,528C 129.5,527.333 127.5,526.667 125.5,526C 126.167,525.667 126.833,525.333 127.5,525C 126.24,523.887 125.073,523.72 124,524.5C 123.097,523.299 121.931,522.465 120.5,522C 120.833,521.667 121.167,521.333 121.5,521C 120.747,519.513 119.914,519.346 119,520.5C 117.242,519.531 116.742,518.364 117.5,517C 113.941,515.37 110.608,513.37 107.5,511C 106.167,510.333 106.167,509.667 107.5,509C 95.8672,497.367 85.7006,487.201 77,478.5C 74.7616,476.396 73.7616,474.062 74,471.5C 73.6667,472.167 73.3333,472.833 73,473.5C 71.887,472.24 71.7203,471.073 72.5,470C 71.6383,467.266 70.805,467.099 70,469.5C 69.3246,465.844 67.9913,462.844 66,460.5C 65.6667,461.167 65.3333,461.833 65,462.5C 64.6667,461.167 64.3333,459.833 64,458.5C 63.6667,458.833 63.3333,459.167 63,459.5C 62.6667,458.167 62.3333,456.833 62,455.5C 61.6667,455.833 61.3333,456.167 61,456.5C 60.6667,454.833 60.3333,453.167 60,451.5C 59.6667,452.167 59.3333,452.833 59,453.5C 58.7547,451.337 57.7547,449.67 56,448.5C 55.6667,446.833 55.3333,445.167 55,443.5C 54.3333,444.833 53.6667,444.833 53,443.5C 52.3989,440.363 51.3989,437.363 50,434.5C 49.3333,433.167 48.6667,433.167 48,434.5C 46.7535,430.823 44.9202,426.989 42.5,423C 42.8333,422.667 43.1667,422.333 43.5,422C 42.09,421.632 41.09,420.799 40.5,419.5C 41.9327,417.191 41.266,415.691 38.5,415C 38.3062,413.57 38.3062,412.07 38.5,410.5C 36.9738,408.36 35.3071,406.026 33.5,403.5C 34.0016,402.284 34.3349,401.117 34.5,400C 31.2588,396.248 28.9254,391.582 27.5,386C 27.6448,385.228 27.9781,384.561 28.5,384C 27.5,382.333 26.5,380.667 25.5,379C 26.0219,378.439 26.3552,377.772 26.5,377C 26.0556,375.238 25.5556,375.405 25,377.5C 24.3162,376.216 24.4829,375.049 25.5,374C 24.405,371.805 23.405,369.638 22.5,367.5C 23.4709,366.038 23.1376,364.705 21.5,363.5C 22.9023,362.158 22.5689,361.324 20.5,361C 23.1667,360.333 23.1667,359.667 20.5,359C 21.6034,357.32 21.2701,355.82 19.5,354.5C 18.5339,350.865 18.5339,347.365 19.5,344C 18.6919,343.692 18.0253,343.192 17.5,342.5C 18.2561,340.549 18.5894,338.716 18.5,337C 17.6919,336.692 17.0253,336.192 16.5,335.5C 17.647,332.393 17.3137,329.393 15.5,326.5C 16.3311,324.527 16.4978,322.527 16,320.5C 15.3457,321.696 14.8457,321.696 14.5,320.5C 15.1667,318.833 15.8333,317.167 16.5,315.5C 16.1543,314.304 15.6543,314.304 15,315.5C 14.8333,314.167 14.6667,312.833 14.5,311.5C 15.8333,303.5 15.8333,295.5 14.5,287.5C 14.6667,286.167 14.8333,284.833 15,283.5C 15.6543,284.696 16.1543,284.696 16.5,283.5C 15.8333,281.833 15.1667,280.167 14.5,278.5C 14.8457,277.304 15.3457,277.304 16,278.5C 16.1667,277.833 16.3333,277.167 16.5,276.5C 15.1972,273.03 15.5306,269.697 17.5,266.5C 16.009,264.459 16.3423,262.959 18.5,262C 18.5894,260.284 18.2561,258.451 17.5,256.5C 18.0253,255.808 18.6919,255.308 19.5,255C 18.5339,251.635 18.5339,248.135 19.5,244.5C 21.2701,243.18 21.6034,241.68 20.5,240C 23.1667,239.333 23.1667,238.667 20.5,238C 22.5689,237.676 22.9023,236.842 21.5,235.5C 23.1376,234.295 23.4709,232.962 22.5,231.5C 23.405,229.362 24.405,227.195 25.5,225C 24.9781,224.439 24.6448,223.772 24.5,223C 24.9444,221.238 25.4444,221.405 26,223.5C 26.6838,222.216 26.5171,221.049 25.5,220C 26.5,218.333 27.5,216.667 28.5,215C 27.9781,214.439 27.6448,213.772 27.5,213C 28.9254,207.418 31.2588,202.752 34.5,199C 32.5696,196.39 33.2363,194.057 36.5,192C 36.1667,191.667 35.8333,191.333 35.5,191C 38.1242,190.424 38.7908,189.09 37.5,187C 39.1247,186.147 39.4581,185.147 38.5,184C 39.91,183.632 40.91,182.799 41.5,181.5C 40.0673,179.191 40.734,177.691 43.5,177C 43.1667,176.667 42.8333,176.333 42.5,176C 44.0172,172.619 46.0172,169.619 48.5,167C 48.0426,166.586 47.7093,166.086 47.5,165.5C 48.2472,165.264 49.0805,164.93 50,164.5C 51.3989,161.637 52.3989,158.637 53,155.5C 53.6667,156.833 54.3333,156.833 55,155.5C 55.4584,151.744 56.7918,148.411 59,145.5C 59.3333,146.167 59.6667,146.833 60,147.5C 60.3333,145.833 60.6667,144.167 61,142.5C 61.3333,142.833 61.6667,143.167 62,143.5C 63,141.167 64,138.833 65,136.5C 65.3333,137.167 65.6667,137.833 66,138.5C 67.9913,136.156 69.3246,133.156 70,129.5C 70.3333,130.167 70.6667,130.833 71,131.5C 71.6667,129.5 72.3333,127.5 73,125.5C 73.3333,126.167 73.6667,126.833 74,127.5C 75.113,126.24 75.2797,125.073 74.5,124C 75.7014,123.097 76.5348,121.931 77,120.5C 77.3333,120.833 77.6667,121.167 78,121.5C 79.487,120.747 79.6537,119.914 78.5,119C 79.4695,117.242 80.6361,116.742 82,117.5C 83.4389,115.725 84.4389,113.725 85,111.5C 85.8525,109.875 86.8525,109.542 88,110.5C 97.2744,99.5431 107.108,90.0431 117.5,82C 117.167,81.6667 116.833,81.3333 116.5,81C 117.893,78.8219 119.56,77.8219 121.5,78C 121.167,77.6667 120.833,77.3333 120.5,77C 122.604,74.7616 124.938,73.7616 127.5,74C 126.833,73.6667 126.167,73.3333 125.5,73C 126.76,71.887 127.927,71.7203 129,72.5C 131.734,71.6383 131.901,70.805 129.5,70C 133.156,69.3246 136.156,67.9913 138.5,66C 137.833,65.6667 137.167,65.3333 136.5,65C 137.833,64.6667 139.167,64.3333 140.5,64C 140.167,63.6667 139.833,63.3333 139.5,63C 140.833,62.6667 142.167,62.3333 143.5,62C 143.167,61.6667 142.833,61.3333 142.5,61C 144.167,60.6667 145.833,60.3333 147.5,60C 146.833,59.6667 146.167,59.3333 145.5,59C 148.411,56.7918 151.744,55.4584 155.5,55C 156.833,54.3333 156.833,53.6667 155.5,53C 158.637,52.3989 161.637,51.3989 164.5,50C 165.833,49.3333 165.833,48.6667 164.5,48C 168.177,46.7535 172.011,44.9202 176,42.5C 176.333,42.8333 176.667,43.1667 177,43.5C 177.368,42.09 178.201,41.09 179.5,40.5C 181.809,41.9327 183.309,41.266 184,38.5C 185.43,38.3062 186.93,38.3062 188.5,38.5C 190.64,36.9738 192.974,35.3071 195.5,33.5C 196.716,34.0016 197.883,34.3349 199,34.5C 202.752,31.2588 207.418,28.9254 213,27.5C 213.772,27.6448 214.439,27.9781 215,28.5C 216.667,27.5 218.333,26.5 220,25.5C 220.561,26.0219 221.228,26.3552 222,26.5C 223.762,26.0556 223.595,25.5556 221.5,25C 222.784,24.3162 223.951,24.4829 225,25.5C 227.195,24.405 229.362,23.405 231.5,22.5C 232.962,23.4709 234.295,23.1376 235.5,21.5C 236.842,22.9023 237.676,22.5689 238,20.5C 238.667,23.1667 239.333,23.1667 240,20.5C 242.097,20.3062 244.263,20.3062 246.5,20.5C 247.192,19.9747 247.692,19.3081 248,18.5C 250.333,18.8333 252.667,19.1667 255,19.5C 255.308,18.6919 255.808,18.0253 256.5,17.5C 258.451,18.2561 260.284,18.5894 262,18.5C 262.308,17.6919 262.808,17.0253 263.5,16.5C 267.781,16.2187 272.115,16.2187 276.5,16.5C 277.167,16.3333 277.833,16.1667 278.5,16C 277.304,15.3457 277.304,14.8457 278.5,14.5C 280.167,15.1667 281.833,15.8333 283.5,16.5C 284.696,16.1543 284.696,15.6543 283.5,15C 284.833,14.8333 286.167,14.6667 287.5,14.5C 295.5,15.8333 303.5,15.8333 311.5,14.5C 312.833,14.6667 314.167,14.8333 315.5,15C 314.304,15.6543 314.304,16.1543 315.5,16.5C 317.167,15.8333 318.833,15.1667 320.5,14.5C 321.696,14.8457 321.696,15.3457 320.5,16C 321.167,16.1667 321.833,16.3333 322.5,16.5C 326.885,16.2187 331.219,16.2187 335.5,16.5C 336.192,17.0253 336.692,17.6919 337,18.5C 338.716,18.5894 340.549,18.2561 342.5,17.5C 343.192,18.0253 343.692,18.6919 344,19.5C 346.333,19.1667 348.667,18.8333 351,18.5C 351.308,19.3081 351.808,19.9747 352.5,20.5C 354.737,20.3062 356.903,20.3062 359,20.5C 359.667,23.1667 360.333,23.1667 361,20.5C 361.324,22.5689 362.158,22.9023 363.5,21.5C 365.638,22.405 367.805,23.405 370,24.5C 370.414,24.0426 370.914,23.7093 371.5,23.5C 372.797,25.3668 374.297,25.7002 376,24.5C 377.762,24.9444 377.595,25.4444 375.5,26C 376.784,26.6838 377.951,26.5171 379,25.5C 380.667,26.5 382.333,27.5 384,28.5C 384.561,27.9781 385.228,27.6448 386,27.5C 391.582,28.9254 396.248,31.2588 400,34.5C 401.117,34.3349 402.284,34.0016 403.5,33.5C 406.026,35.3071 408.36,36.9738 410.5,38.5C 412.07,38.3062 413.57,38.3062 415,38.5C 415.368,39.91 416.201,40.91 417.5,41.5C 419.809,40.0673 421.309,40.734 422,43.5C 422.333,43.1667 422.667,42.8333 423,42.5C 426.989,44.9202 430.823,46.7535 434.5,48C 433.167,48.6667 433.167,49.3333 434.5,50C 437.363,51.3989 440.363,52.3989 443.5,53C 444.833,53.6667 444.833,54.3333 443.5,55C 445.167,55.3333 446.833,55.6667 448.5,56C 449.67,57.7547 451.337,58.7547 453.5,59C 452.833,59.3333 452.167,59.6667 451.5,60C 453.167,60.3333 454.833,60.6667 456.5,61C 456.167,61.3333 455.833,61.6667 455.5,62C 457.833,63 460.167,64 462.5,65C 461.833,65.3333 461.167,65.6667 460.5,66C 462.844,67.9913 465.844,69.3246 469.5,70C 468.833,70.3333 468.167,70.6667 467.5,71C 469.5,71.6667 471.5,72.3333 473.5,73C 472.833,73.3333 472.167,73.6667 471.5,74C 472.76,75.113 473.927,75.2797 475,74.5C 475.903,75.7014 477.069,76.5348 478.5,77C 478.167,77.3333 477.833,77.6667 477.5,78C 478.253,79.487 479.086,79.6537 480,78.5C 481.758,79.4695 482.258,80.6361 481.5,82C 483.275,83.4389 485.275,84.4389 487.5,85C 489.125,85.8525 489.458,86.8525 488.5,88C 499.457,97.2744 508.957,107.108 517,117.5C 517.333,117.167 517.667,116.833 518,116.5C 520.178,117.893 521.178,119.56 521,121.5C 521.333,121.167 521.667,120.833 522,120.5C 524.238,122.604 525.238,124.938 525,127.5C 525.333,126.833 525.667,126.167 526,125.5C 527.113,126.76 527.28,127.927 526.5,129C 527.362,131.734 528.195,131.901 529,129.5C 529.675,133.156 531.009,136.156 533,138.5C 533.333,137.833 533.667,137.167 534,136.5C 534.333,137.833 534.667,139.167 535,140.5C 535.333,140.167 535.667,139.833 536,139.5C 536.333,140.833 536.667,142.167 537,143.5C 537.333,143.167 537.667,142.833 538,142.5C 538.333,144.167 538.667,145.833 539,147.5C 539.333,146.833 539.667,146.167 540,145.5C 540.245,147.663 541.245,149.33 543,150.5C 543.333,152.167 543.667,153.833 544,155.5C 544.667,156.833 545.333,156.833 546,155.5C 546.511,157.878 547.178,160.212 548,162.5C 548.667,161.167 549.333,161.167 550,162.5C 551.581,166.844 553.748,171.344 556.5,176C 556.167,176.333 555.833,176.667 555.5,177C 558.447,178.223 559.447,180.223 558.5,183C 560.301,183.317 560.634,183.984 559.5,185C 561.833,186.243 562.5,187.909 561.5,190C 563.301,190.317 563.634,190.984 562.5,192C 563.687,193.019 564.687,194.186 565.5,195.5C 565.306,197.07 565.306,198.57 565.5,200C 567.394,201.101 568.061,202.434 567.5,204C 569.547,207.464 571.213,211.13 572.5,215C 571.578,217.201 571.578,219.535 572.5,222C 572.944,223.762 573.444,223.595 574,221.5C 574.684,222.784 574.517,223.951 573.5,225C 575.394,226.079 575.727,227.413 574.5,229C 575.595,231.195 576.595,233.362 577.5,235.5C 576.098,236.842 576.431,237.676 578.5,238C 575.833,238.667 575.833,239.333 578.5,240C 578.694,242.097 578.694,244.263 578.5,246.5C 579.025,247.192 579.692,247.692 580.5,248C 580.167,250.333 579.833,252.667 579.5,255C 580.308,255.308 580.975,255.808 581.5,256.5C 580.744,258.451 580.411,260.284 580.5,262C 581.308,262.308 581.975,262.808 582.5,263.5C 582.781,267.781 582.781,272.115 582.5,276.5C 582.667,277.167 582.833,277.833 583,278.5C 583.654,277.304 584.154,277.304 584.5,278.5C 583.833,280.167 583.167,281.833 582.5,283.5C 582.846,284.696 583.346,284.696 584,283.5C 584.167,284.833 584.333,286.167 584.5,287.5C 583.167,295.5 583.167,303.5 584.5,311.5C 584.333,312.833 584.167,314.167 584,315.5C 583.346,314.304 582.846,314.304 582.5,315.5C 583.167,317.167 583.833,318.833 584.5,320.5C 584.154,321.696 583.654,321.696 583,320.5C 582.833,321.167 582.667,321.833 582.5,322.5C 582.781,326.885 582.781,331.219 582.5,335.5C 581.975,336.192 581.308,336.692 580.5,337C 580.411,338.716 580.744,340.549 581.5,342.5C 580.975,343.192 580.308,343.692 579.5,344C 579.833,346.333 580.167,348.667 580.5,351C 579.692,351.308 579.025,351.808 578.5,352.5C 578.694,354.737 578.694,356.903 578.5,359C 577.833,359.333 577.167,359.667 576.5,360C 579.167,360.667 579.167,361.333 576.5,362C 577.727,363.587 577.394,364.921 575.5,366C 576.727,367.587 576.394,368.921 574.5,370C 575.727,371.587 575.394,372.921 573.5,374C 574.517,375.049 574.684,376.216 574,377.5C 573.444,375.405 572.944,375.238 572.5,377C 571.578,379.465 571.578,381.799 572.5,384C 571.213,387.87 569.547,391.536 567.5,395C 568.061,396.566 567.394,397.899 565.5,399C 565.306,400.43 565.306,401.93 565.5,403.5C 564.687,404.814 563.687,405.981 562.5,407C 563.634,408.016 563.301,408.683 561.5,409C 562.5,411.091 561.833,412.757 559.5,414C 560.634,415.016 560.301,415.683 558.5,416C 559.447,418.777 558.447,420.777 555.5,422C 555.833,422.333 556.167,422.667 556.5,423C 553.577,428.079 551.077,432.913 549,437.5C 548.667,437.167 548.333,436.833 548,436.5C 547.178,438.788 546.511,441.122 546,443.5C 545.333,444.833 544.667,444.833 544,443.5C 543.542,447.256 542.208,450.589 540,453.5C 539.667,452.833 539.333,452.167 539,451.5C 538.667,453.167 538.333,454.833 538,456.5C 537.667,456.167 537.333,455.833 537,455.5C 536,457.833 535,460.167 534,462.5C 533.667,461.833 533.333,461.167 533,460.5C 531.009,462.844 529.675,465.844 529,469.5C 528.667,468.833 528.333,468.167 528,467.5C 527.333,469.5 526.667,471.5 526,473.5C 525.667,472.833 525.333,472.167 525,471.5C 523.887,472.76 523.72,473.927 524.5,475C 523.299,475.903 522.465,477.069 522,478.5C 521.667,478.167 521.333,477.833 521,477.5C 519.513,478.253 519.346,479.086 520.5,480C 519.531,481.758 518.364,482.258 517,481.5C 515.37,485.059 513.37,488.392 511,491.5C 510.333,492.833 509.667,492.833 509,491.5C 499.367,501.133 490.534,509.966 482.5,518C 481.107,520.178 479.44,521.178 477.5,521C 477.833,521.333 478.167,521.667 478.5,522C 476.396,524.238 474.062,525.238 471.5,525C 472.167,525.333 472.833,525.667 473.5,526C 472.24,527.113 471.073,527.28 470,526.5C 467.266,527.362 467.099,528.195 469.5,529C 467.5,529.667 465.5,530.333 463.5,531C 463.833,531.333 464.167,531.667 464.5,532C 463.338,532.827 462.171,533.66 461,534.5C 460.5,534.333 460,534.167 459.5,534C 460.641,533.259 460.641,532.425 459.5,531.5C 460.025,530.808 460.692,530.308 461.5,530C 460.692,529.692 460.025,529.192 459.5,528.5C 460.59,527.391 460.59,526.391 459.5,525.5C 454.581,529.441 449.581,533.108 444.5,536.5 Z"/></g>
<g><path style="opacity:1" fill="#cb232a" d="M 453.5,509.5 C 454.167,508.167 455.167,507.167 456.5,506.5C 459.527,504.736 462.027,502.402 464,499.5C 465.452,500.907 465.285,502.407 463.5,504C 465.125,504.853 465.458,505.853 464.5,507C 466.744,509.349 467.911,508.849 468,505.5C 483.694,493.806 497.361,480.139 509,464.5C 510.666,465.34 510.833,464.84 509.5,463C 511.442,460.966 513.275,458.8 515,456.5C 515.333,456.833 515.667,457.167 516,457.5C 520.631,448.931 525.631,440.597 531,432.5C 537.634,420.916 543.301,408.916 548,396.5C 550.543,395.124 550.709,393.957 548.5,393C 552.083,385.255 555.083,377.255 557.5,369C 557.152,366.945 557.819,364.945 559.5,363C 559.167,362 558.833,361 558.5,360C 559.167,358.667 560.167,357.667 561.5,357C 560.754,354.907 560.421,352.907 560.5,351C 561.636,349.47 562.636,348.137 563.5,347C 561.968,344.67 562.302,342.67 564.5,341C 561.833,339.667 561.833,338.333 564.5,337C 563.549,336.282 563.383,335.449 564,334.5C 564.654,335.696 565.154,335.696 565.5,334.5C 563.027,332.758 563.027,330.925 565.5,329C 564.483,327.951 564.316,326.784 565,325.5C 565.654,326.696 566.154,326.696 566.5,325.5C 564.231,323.119 564.231,320.619 566.5,318C 565.424,316.274 565.257,314.441 566,312.5C 566.889,313.888 567.389,313.722 567.5,312C 564.833,303.667 564.833,295.333 567.5,287C 567.389,285.278 566.889,285.112 566,286.5C 566.787,282.928 566.287,279.594 564.5,276.5C 565.167,275.5 565.833,274.5 566.5,273.5C 566.154,272.304 565.654,272.304 565,273.5C 564.316,272.216 564.483,271.049 565.5,270C 563.027,268.075 563.027,266.242 565.5,264.5C 565.154,263.304 564.654,263.304 564,264.5C 563.383,263.551 563.549,262.718 564.5,262C 561.833,260.667 561.833,259.333 564.5,258C 562.302,256.33 561.968,254.33 563.5,252C 562.636,250.863 561.636,249.53 560.5,248C 560.421,246.093 560.754,244.093 561.5,242C 560.167,241.333 559.167,240.333 558.5,239C 559.668,236.429 559.002,233.763 556.5,231C 556.833,230.667 557.167,230.333 557.5,230C 539.787,171.159 508.787,124.493 464.5,90C 465.34,88.3335 464.84,88.1669 463,89.5C 460.966,87.5582 458.8,85.7248 456.5,84C 456.833,83.6667 457.167,83.3333 457.5,83C 445.238,76.3944 433.238,69.3944 421.5,62C 417.543,59.6123 413.543,58.4456 409.5,58.5C 407.33,56.9138 404.996,55.5804 402.5,54.5C 399.167,52.8333 395.833,51.1667 392.5,49.5C 384.945,46.2228 377.278,43.2228 369.5,40.5C 337.506,30.5573 304.839,27.7239 271.5,32C 259.591,33.9823 247.924,36.8156 236.5,40.5C 231.828,42.1682 227.162,43.8348 222.5,45.5C 222.265,44.9033 221.765,44.5699 221,44.5C 162.609,63.775 116.942,96.4416 84,142.5C 83.6667,142.167 83.3333,141.833 83,141.5C 78.3687,150.069 73.3687,158.403 68,166.5C 61.3655,178.084 55.6989,190.084 51,202.5C 48.4575,203.876 48.2908,205.043 50.5,206C 46.917,213.745 43.917,221.745 41.5,230C 41.848,232.055 41.1814,234.055 39.5,236C 39.8333,237 40.1667,238 40.5,239C 39.8333,240.333 38.8333,241.333 37.5,242C 38.2461,244.093 38.5795,246.093 38.5,248C 37.364,249.53 36.364,250.863 35.5,252C 37.0317,254.33 36.6983,256.33 34.5,258C 37.1667,259.333 37.1667,260.667 34.5,262C 35.4506,262.718 35.6172,263.551 35,264.5C 34.3457,263.304 33.8457,263.304 33.5,264.5C 35.9734,266.242 35.9734,268.075 33.5,270C 34.5171,271.049 34.6838,272.216 34,273.5C 33.3457,272.304 32.8457,272.304 32.5,273.5C 34.7687,275.881 34.7687,278.381 32.5,281C 33.5762,282.726 33.7429,284.559 33,286.5C 32.1107,285.112 31.6107,285.278 31.5,287C 34.1667,295.333 34.1667,303.667 31.5,312C 31.6107,313.722 32.1107,313.888 33,312.5C 32.213,316.072 32.713,319.406 34.5,322.5C 33.8333,323.5 33.1667,324.5 32.5,325.5C 32.8457,326.696 33.3457,326.696 34,325.5C 34.6838,326.784 34.5171,327.951 33.5,329C 35.9734,330.925 35.9734,332.758 33.5,334.5C 33.8457,335.696 34.3457,335.696 35,334.5C 35.6172,335.449 35.4506,336.282 34.5,337C 37.1667,338.333 37.1667,339.667 34.5,341C 36.6983,342.67 37.0317,344.67 35.5,347C 36.364,348.137 37.364,349.47 38.5,351C 38.5795,352.907 38.2461,354.907 37.5,357C 38.8333,357.667 39.8333,358.667 40.5,360C 39.3316,362.571 39.9982,365.237 42.5,368C 42.1667,368.333 41.8333,368.667 41.5,369C 59.2127,427.841 90.2127,474.507 134.5,509C 133.66,510.666 134.16,510.833 136,509.5C 139.394,512.033 141.894,514.699 143.5,517.5C 142.957,517.56 142.624,517.893 142.5,518.5C 143.833,521.167 145.167,523.833 146.5,526.5C 144.835,526.166 143.001,526.166 141,526.5C 130.186,518.349 119.686,509.849 109.5,501C 59.1985,450.718 30.5318,391.551 23.5,323.5C 17.5994,237.206 45.9328,162.373 108.5,99C 169.87,43.7806 240.704,18.9473 321,24.5C 405.621,31.7233 473.955,70.39 526,140.5C 568.709,204.058 583.875,272.392 571.5,345.5C 571.709,346.086 572.043,346.586 572.5,347C 571.5,350 570.5,353 569.5,356C 569.833,356.333 570.167,356.667 570.5,357C 568.497,363.35 566.497,369.683 564.5,376C 547.589,435.558 514.089,484.058 464,521.5C 463.626,520.584 463.126,519.75 462.5,519C 462.944,517.467 463.277,515.967 463.5,514.5C 463.167,513.5 462.5,512.833 461.5,512.5C 458.681,515.075 455.681,517.408 452.5,519.5C 451.713,518.758 451.047,517.925 450.5,517C 452.055,514.745 453.055,512.245 453.5,509.5 Z"/></g>
<g><path style="opacity:1" fill="#f9d7d2" d="M 369.5,40.5 C 325.167,41.8333 280.833,41.8333 236.5,40.5C 247.924,36.8156 259.591,33.9823 271.5,32C 304.839,27.7239 337.506,30.5573 369.5,40.5 Z"/></g>
<g><path style="opacity:1" fill="#d1232b" d="M 222.5,45.5 C 219.672,46.6553 217.005,47.9886 214.5,49.5C 210.71,50.8951 207.043,52.5617 203.5,54.5C 198.963,56.9301 194.63,59.5968 190.5,62.5C 187.497,63.6662 184.83,65.3328 182.5,67.5C 180.611,68.604 178.945,69.9373 177.5,71.5C 175.246,72.1237 173.579,73.457 172.5,75.5C 171.609,76.1098 170.609,76.4431 169.5,76.5C 162.743,80.0491 156.077,83.8825 149.5,88C 89.653,133.038 53.9863,191.371 42.5,263C 42.9574,263.414 43.2907,263.914 43.5,264.5C 42.8247,270.162 41.8247,275.996 40.5,282C 36.6451,353.051 58.8117,416.884 107,473.5C 113.167,479.667 119.333,485.833 125.5,492C 130.309,495.803 135.142,499.636 140,503.5C 140.374,502.584 140.874,501.75 141.5,501C 141.056,499.467 140.723,497.967 140.5,496.5C 141.325,495.614 142.325,495.281 143.5,495.5C 143.281,496.675 143.614,497.675 144.5,498.5C 146.772,499.441 148.772,500.774 150.5,502.5C 150.872,499.815 151.206,497.148 151.5,494.5C 154.202,496.221 156.869,497.888 159.5,499.5C 160.6,500.605 161.267,501.938 161.5,503.5C 163.352,511.407 161.019,512.407 154.5,506.5C 153.365,507.103 152.365,507.436 151.5,507.5C 153.335,508.428 153.668,509.594 152.5,511C 154.476,514.935 156.142,518.935 157.5,523C 156.944,523.383 156.611,523.883 156.5,524.5C 151.734,522.951 147.401,520.617 143.5,517.5C 141.894,514.699 139.394,512.033 136,509.5C 134.16,510.833 133.66,510.666 134.5,509C 90.2127,474.507 59.2127,427.841 41.5,369C 41.8333,368.667 42.1667,368.333 42.5,368C 39.9982,365.237 39.3316,362.571 40.5,360C 39.8333,358.667 38.8333,357.667 37.5,357C 38.2461,354.907 38.5795,352.907 38.5,351C 37.364,349.47 36.364,348.137 35.5,347C 37.0317,344.67 36.6983,342.67 34.5,341C 37.1667,339.667 37.1667,338.333 34.5,337C 35.4506,336.282 35.6172,335.449 35,334.5C 34.3457,335.696 33.8457,335.696 33.5,334.5C 35.9734,332.758 35.9734,330.925 33.5,329C 34.5171,327.951 34.6838,326.784 34,325.5C 33.3457,326.696 32.8457,326.696 32.5,325.5C 33.1667,324.5 33.8333,323.5 34.5,322.5C 32.713,319.406 32.213,316.072 33,312.5C 32.1107,313.888 31.6107,313.722 31.5,312C 34.1667,303.667 34.1667,295.333 31.5,287C 31.6107,285.278 32.1107,285.112 33,286.5C 33.7429,284.559 33.5762,282.726 32.5,281C 34.7687,278.381 34.7687,275.881 32.5,273.5C 32.8457,272.304 33.3457,272.304 34,273.5C 34.6838,272.216 34.5171,271.049 33.5,270C 35.9734,268.075 35.9734,266.242 33.5,264.5C 33.8457,263.304 34.3457,263.304 35,264.5C 35.6172,263.551 35.4506,262.718 34.5,262C 37.1667,260.667 37.1667,259.333 34.5,258C 36.6983,256.33 37.0317,254.33 35.5,252C 36.364,250.863 37.364,249.53 38.5,248C 38.5795,246.093 38.2461,244.093 37.5,242C 38.8333,241.333 39.8333,240.333 40.5,239C 40.1667,238 39.8333,237 39.5,236C 41.1814,234.055 41.848,232.055 41.5,230C 43.917,221.745 46.917,213.745 50.5,206C 48.2908,205.043 48.4575,203.876 51,202.5C 55.6989,190.084 61.3655,178.084 68,166.5C 73.3687,158.403 78.3687,150.069 83,141.5C 83.3333,141.833 83.6667,142.167 84,142.5C 116.942,96.4416 162.609,63.775 221,44.5C 221.765,44.5699 222.265,44.9033 222.5,45.5 Z"/></g>
<g><path style="opacity:1" fill="#f7c8c5" d="M 236.5,40.5 C 280.833,41.8333 325.167,41.8333 369.5,40.5C 377.278,43.2228 384.945,46.2228 392.5,49.5C 333.167,50.8333 273.833,50.8333 214.5,49.5C 217.005,47.9886 219.672,46.6553 222.5,45.5C 227.162,43.8348 231.828,42.1682 236.5,40.5 Z"/></g>
<g><path style="opacity:1" fill="#f6bfbd" d="M 214.5,49.5 C 273.833,50.8333 333.167,50.8333 392.5,49.5C 395.833,51.1667 399.167,52.8333 402.5,54.5C 336.167,55.8333 269.833,55.8333 203.5,54.5C 207.043,52.5617 210.71,50.8951 214.5,49.5 Z"/></g>
<g><path style="opacity:1" fill="#d3232b" d="M 409.5,58.5 C 413.543,58.4456 417.543,59.6123 421.5,62C 433.238,69.3944 445.238,76.3944 457.5,83C 457.167,83.3333 456.833,83.6667 456.5,84C 458.8,85.7248 460.966,87.5582 463,89.5C 464.84,88.1669 465.34,88.3335 464.5,90C 508.787,124.493 539.787,171.159 557.5,230C 557.167,230.333 556.833,230.667 556.5,231C 559.002,233.763 559.668,236.429 558.5,239C 559.167,240.333 560.167,241.333 561.5,242C 560.754,244.093 560.421,246.093 560.5,248C 561.636,249.53 562.636,250.863 563.5,252C 561.968,254.33 562.302,256.33 564.5,258C 561.833,259.333 561.833,260.667 564.5,262C 563.549,262.718 563.383,263.551 564,264.5C 564.654,263.304 565.154,263.304 565.5,264.5C 563.027,266.242 563.027,268.075 565.5,270C 564.483,271.049 564.316,272.216 565,273.5C 565.654,272.304 566.154,272.304 566.5,273.5C 565.833,274.5 565.167,275.5 564.5,276.5C 566.287,279.594 566.787,282.928 566,286.5C 566.889,285.112 567.389,285.278 567.5,287C 564.833,295.333 564.833,303.667 567.5,312C 567.389,313.722 566.889,313.888 566,312.5C 565.257,314.441 565.424,316.274 566.5,318C 564.231,320.619 564.231,323.119 566.5,325.5C 566.154,326.696 565.654,326.696 565,325.5C 564.316,326.784 564.483,327.951 565.5,329C 563.027,330.925 563.027,332.758 565.5,334.5C 565.154,335.696 564.654,335.696 564,334.5C 563.383,335.449 563.549,336.282 564.5,337C 561.833,338.333 561.833,339.667 564.5,341C 562.302,342.67 561.968,344.67 563.5,347C 562.636,348.137 561.636,349.47 560.5,351C 560.421,352.907 560.754,354.907 561.5,357C 560.167,357.667 559.167,358.667 558.5,360C 558.833,361 559.167,362 559.5,363C 557.819,364.945 557.152,366.945 557.5,369C 555.083,377.255 552.083,385.255 548.5,393C 550.709,393.957 550.543,395.124 548,396.5C 543.301,408.916 537.634,420.916 531,432.5C 525.631,440.597 520.631,448.931 516,457.5C 515.667,457.167 515.333,456.833 515,456.5C 513.275,458.8 511.442,460.966 509.5,463C 510.833,464.84 510.666,465.34 509,464.5C 497.361,480.139 483.694,493.806 468,505.5C 467.911,508.849 466.744,509.349 464.5,507C 465.458,505.853 465.125,504.853 463.5,504C 465.285,502.407 465.452,500.907 464,499.5C 462.027,502.402 459.527,504.736 456.5,506.5C 456.511,504.983 457.177,503.816 458.5,503C 456.986,501.561 456.653,500.061 457.5,498.5C 454.305,497.171 453.972,495.505 456.5,493.5C 455.652,491.591 455.318,489.591 455.5,487.5C 455.5,486.833 455.833,486.5 456.5,486.5C 457.885,485.386 459.385,484.386 461,483.5C 461.341,480.813 462.674,478.813 465,477.5C 465.021,479.438 464.854,481.438 464.5,483.5C 464.846,484.696 465.346,484.696 466,483.5C 465.737,484.951 465.904,486.284 466.5,487.5C 514.19,443.407 541.524,390.74 548.5,329.5C 550.324,325.356 550.324,321.356 548.5,317.5C 548.846,316.304 549.346,316.304 550,317.5C 550.497,314.854 550.664,312.187 550.5,309.5C 554.042,309.813 557.375,309.479 560.5,308.5C 561.492,301.018 561.825,293.352 561.5,285.5C 557.833,285.5 554.167,285.5 550.5,285.5C 550.657,284.127 550.49,282.793 550,281.5C 549.346,282.696 548.846,282.696 548.5,281.5C 549.167,280.167 549.833,278.833 550.5,277.5C 548.009,257.463 543.676,237.629 537.5,218C 537.164,216.97 536.497,216.47 535.5,216.5C 538.296,213.203 541.296,210.036 544.5,207C 539,201.5 533.5,196 528,190.5C 527.617,191.056 527.117,191.389 526.5,191.5C 513.597,165.024 496.764,141.358 476,120.5C 475.601,120.728 475.435,121.062 475.5,121.5C 474.833,120.833 474.167,120.167 473.5,119.5C 472.525,117.205 471.192,115.205 469.5,113.5C 468.396,111.611 467.063,109.945 465.5,108.5C 464.876,106.246 463.543,104.579 461.5,103.5C 460.243,100.573 458.243,98.2393 455.5,96.5C 452.542,91.8744 448.876,87.8744 444.5,84.5C 441.149,81.1518 437.482,78.1518 433.5,75.5C 432.421,73.457 430.754,72.1237 428.5,71.5C 427.055,69.9373 425.389,68.604 423.5,67.5C 421.17,65.3328 418.503,63.6662 415.5,62.5C 413.795,60.8079 411.795,59.4746 409.5,58.5 Z"/></g>
<g><path style="opacity:1" fill="#f4b4b2" d="M 203.5,54.5 C 269.833,55.8333 336.167,55.8333 402.5,54.5C 404.996,55.5804 407.33,56.9138 409.5,58.5C 411.795,59.4746 413.795,60.8079 415.5,62.5C 413.782,63.224 411.948,63.8906 410,64.5C 338.641,63.2065 267.141,63.2065 195.5,64.5C 193.664,63.9724 191.997,63.3058 190.5,62.5C 194.63,59.5968 198.963,56.9301 203.5,54.5 Z"/></g>
<g><path style="opacity:1" fill="#f4abaa" d="M 190.5,62.5 C 191.997,63.3058 193.664,63.9724 195.5,64.5C 267.141,63.2065 338.641,63.2065 410,64.5C 411.948,63.8906 413.782,63.224 415.5,62.5C 418.503,63.6662 421.17,65.3328 423.5,67.5C 343.167,68.8333 262.833,68.8333 182.5,67.5C 184.83,65.3328 187.497,63.6662 190.5,62.5 Z"/></g>
<g><path style="opacity:1" fill="#f2a4a4" d="M 182.5,67.5 C 262.833,68.8333 343.167,68.8333 423.5,67.5C 425.389,68.604 427.055,69.9373 428.5,71.5C 344.833,72.8333 261.167,72.8333 177.5,71.5C 178.945,69.9373 180.611,68.604 182.5,67.5 Z"/></g>
<g><path style="opacity:1" fill="#f29e9e" d="M 177.5,71.5 C 261.167,72.8333 344.833,72.8333 428.5,71.5C 430.754,72.1237 432.421,73.457 433.5,75.5C 423.098,76.1773 412.598,76.844 402,77.5C 333.667,77.5 265.333,77.5 197,77.5C 188.735,76.847 180.568,76.1803 172.5,75.5C 173.579,73.457 175.246,72.1237 177.5,71.5 Z"/></g>
<g><path style="opacity:1" fill="#d9232c" d="M 169.5,76.5 C 167.14,79.5272 164.473,82.1938 161.5,84.5C 159.833,85.5 158.5,86.8333 157.5,88.5C 156.5,88.8333 155.833,89.5 155.5,90.5C 151.464,94.5344 147.798,98.8677 144.5,103.5C 142.457,104.579 141.124,106.246 140.5,108.5C 138.937,109.945 137.604,111.611 136.5,113.5C 134.808,115.205 133.475,117.205 132.5,119.5C 130.44,122.24 128.774,125.24 127.5,128.5C 125.75,129.659 124.75,131.326 124.5,133.5C 124.167,133.5 123.833,133.5 123.5,133.5C 121.983,133.511 120.816,134.177 120,135.5C 89.6897,170.954 69.8563,210.454 60.5,254C 60.5186,255.521 60.852,257.021 61.5,258.5C 40.2575,286.183 40.2575,313.85 61.5,341.5C 60.6996,344.096 60.6996,346.929 61.5,350C 71.5167,391.848 91.0167,429.681 120,463.5C 129.107,472.211 137.94,480.878 146.5,489.5C 147.255,491.466 148.421,491.8 150,490.5C 150.41,491.901 150.91,493.234 151.5,494.5C 151.206,497.148 150.872,499.815 150.5,502.5C 148.772,500.774 146.772,499.441 144.5,498.5C 143.614,497.675 143.281,496.675 143.5,495.5C 142.325,495.281 141.325,495.614 140.5,496.5C 140.723,497.967 141.056,499.467 141.5,501C 140.874,501.75 140.374,502.584 140,503.5C 135.142,499.636 130.309,495.803 125.5,492C 119.333,485.833 113.167,479.667 107,473.5C 58.8117,416.884 36.6451,353.051 40.5,282C 41.8247,275.996 42.8247,270.162 43.5,264.5C 43.2907,263.914 42.9574,263.414 42.5,263C 53.9863,191.371 89.653,133.038 149.5,88C 156.077,83.8825 162.743,80.0491 169.5,76.5 Z"/></g>
<g><path style="opacity:1" fill="#f19495" d="M 172.5,75.5 C 180.568,76.1803 188.735,76.847 197,77.5C 265.333,77.5 333.667,77.5 402,77.5C 412.598,76.844 423.098,76.1773 433.5,75.5C 437.482,78.1518 441.149,81.1518 444.5,84.5C 444.5,84.8333 444.5,85.1667 444.5,85.5C 349.999,85.8327 255.665,85.4994 161.5,84.5C 164.473,82.1938 167.14,79.5272 169.5,76.5C 170.609,76.4431 171.609,76.1098 172.5,75.5 Z"/></g>
<g><path style="opacity:1" fill="#f08c8e" d="M 161.5,84.5 C 255.665,85.4994 349.999,85.8327 444.5,85.5C 443.909,86.1515 443.243,86.8182 442.5,87.5C 439.553,88.3214 436.553,88.8214 433.5,89C 436.167,89.3333 438.833,89.6667 441.5,90C 394.167,90.1667 346.833,90.3333 299.5,90.5C 251.829,90.4999 204.495,89.8333 157.5,88.5C 158.5,86.8333 159.833,85.5 161.5,84.5 Z"/></g>
<g><path style="opacity:1" fill="#ef8588" d="M 444.5,84.5 C 448.876,87.8744 452.542,91.8744 455.5,96.5C 448.386,96.8256 441.386,96.159 434.5,94.5C 345.401,95.4933 256.234,95.8267 167,95.5C 163.415,93.8719 159.581,93.0385 155.5,93C 156.598,92.2303 156.598,91.397 155.5,90.5C 155.833,89.5 156.5,88.8333 157.5,88.5C 204.495,89.8333 251.829,90.4999 299.5,90.5C 346.833,90.3333 394.167,90.1667 441.5,90C 438.833,89.6667 436.167,89.3333 433.5,89C 436.553,88.8214 439.553,88.3214 442.5,87.5C 443.243,86.8182 443.909,86.1515 444.5,85.5C 444.5,85.1667 444.5,84.8333 444.5,84.5 Z"/></g>
<g><path style="opacity:1" fill="#ee7c7f" d="M 155.5,90.5 C 156.598,91.397 156.598,92.2303 155.5,93C 159.581,93.0385 163.415,93.8719 167,95.5C 256.234,95.8267 345.401,95.4933 434.5,94.5C 441.386,96.159 448.386,96.8256 455.5,96.5C 458.243,98.2393 460.243,100.573 461.5,103.5C 355.992,103.488 250.326,103.488 144.5,103.5C 147.798,98.8677 151.464,94.5344 155.5,90.5 Z"/></g>
<g><path style="opacity:1" fill="#ed7579" d="M 461.5,103.5 C 463.543,104.579 464.876,106.246 465.5,108.5C 357.167,108.5 248.833,108.5 140.5,108.5C 141.124,106.246 142.457,104.579 144.5,103.5C 250.326,103.488 355.992,103.488 461.5,103.5 Z"/></g>
<g><path style="opacity:1" fill="#ed6f73" d="M 140.5,108.5 C 248.833,108.5 357.167,108.5 465.5,108.5C 467.063,109.945 468.396,111.611 469.5,113.5C 358.5,114.833 247.5,114.833 136.5,113.5C 137.604,111.611 138.937,109.945 140.5,108.5 Z"/></g>
<g><path style="opacity:1" fill="#ec686d" d="M 136.5,113.5 C 247.5,114.833 358.5,114.833 469.5,113.5C 471.192,115.205 472.525,117.205 473.5,119.5C 472.828,120.267 471.995,120.934 471,121.5C 359.272,121.484 247.105,121.484 134.5,121.5C 133.478,121.145 132.811,120.478 132.5,119.5C 133.475,117.205 134.808,115.205 136.5,113.5 Z"/></g>
<g><path style="opacity:1" fill="#eb6066" d="M 132.5,119.5 C 132.811,120.478 133.478,121.145 134.5,121.5C 247.105,121.484 359.272,121.484 471,121.5C 471.995,120.934 472.828,120.267 473.5,119.5C 474.167,120.167 474.833,120.833 475.5,121.5C 476.773,123.713 477.773,126.046 478.5,128.5C 361.5,128.5 244.5,128.5 127.5,128.5C 128.774,125.24 130.44,122.24 132.5,119.5 Z"/></g>
<g><path style="opacity:1" fill="#ea5a60" d="M 127.5,128.5 C 244.5,128.5 361.5,128.5 478.5,128.5C 480.25,129.659 481.25,131.326 481.5,133.5C 481.631,134.239 481.464,134.906 481,135.5C 421.257,135.156 361.091,135.156 300.5,135.5C 241.496,135.5 182.83,134.833 124.5,133.5C 124.75,131.326 125.75,129.659 127.5,128.5 Z"/></g>
<g><path style="opacity:1" fill="#e3252d" d="M 526.5,191.5 C 507.868,210.632 489.035,229.632 470,248.5C 469.333,249.5 469.333,250.5 470,251.5C 475,256.5 480,261.5 485,266.5C 501.701,249.632 518.535,232.965 535.5,216.5C 536.497,216.47 537.164,216.97 537.5,218C 543.676,237.629 548.009,257.463 550.5,277.5C 549.833,278.833 549.167,280.167 548.5,281.5C 548.846,282.696 549.346,282.696 550,281.5C 550.49,282.793 550.657,284.127 550.5,285.5C 533.5,285.5 516.5,285.5 499.5,285.5C 498.508,293.316 498.174,301.316 498.5,309.5C 515.833,309.5 533.167,309.5 550.5,309.5C 550.664,312.187 550.497,314.854 550,317.5C 549.346,316.304 548.846,316.304 548.5,317.5C 550.324,321.356 550.324,325.356 548.5,329.5C 541.524,390.74 514.19,443.407 466.5,487.5C 465.904,486.284 465.737,484.951 466,483.5C 465.346,484.696 464.846,484.696 464.5,483.5C 464.854,481.438 465.021,479.438 465,477.5C 462.674,478.813 461.341,480.813 461,483.5C 459.385,484.386 457.885,485.386 456.5,486.5C 444.516,421.659 406.85,379.326 343.5,359.5C 343.05,340.112 343.55,320.779 345,301.5C 351.464,289.185 361.631,284.185 375.5,286.5C 375.5,278.5 375.5,270.5 375.5,262.5C 362.228,262.22 351.394,267.22 343,277.5C 342.501,273.848 342.335,270.182 342.5,266.5C 334.833,266.5 327.167,266.5 319.5,266.5C 318.502,294.328 318.169,322.328 318.5,350.5C 313.493,350.249 308.493,349.916 303.5,349.5C 303.831,328.327 303.497,307.327 302.5,286.5C 301.843,276.021 296.51,269.187 286.5,266C 270.471,260.102 254.471,260.102 238.5,266C 227.029,272.436 221.363,282.269 221.5,295.5C 229.5,295.5 237.5,295.5 245.5,295.5C 247.799,284.003 254.799,279.503 266.5,282C 278.192,284.137 280.526,289.804 273.5,299C 261.782,301.09 250.116,303.423 238.5,306C 218.866,316.239 214.033,331.406 224,351.5C 228.597,357.047 234.43,360.38 241.5,361.5C 188.686,386.07 156.686,427.07 145.5,484.5C 145.389,486.109 145.722,487.775 146.5,489.5C 137.94,480.878 129.107,472.211 120,463.5C 91.0167,429.681 71.5167,391.848 61.5,350C 60.6996,346.929 60.6996,344.096 61.5,341.5C 85.0707,365.148 111.737,368.981 141.5,353C 154.663,344.164 163.663,332.164 168.5,317C 159.814,316.168 151.147,316.335 142.5,317.5C 133.158,333.67 119.158,340.504 100.5,338C 81.5435,332.201 71.2102,319.368 69.5,299.5C 71.8038,279.362 82.8038,266.862 102.5,262C 120.101,260.633 133.434,267.466 142.5,282.5C 151.167,283.833 159.833,283.833 168.5,282.5C 154.163,247.161 128.163,232.995 90.5,240C 79.1766,243.656 69.51,249.823 61.5,258.5C 60.852,257.021 60.5186,255.521 60.5,254C 69.8563,210.454 89.6897,170.954 120,135.5C 120.816,134.177 121.983,133.511 123.5,133.5C 122.213,136.406 121.213,139.406 120.5,142.5C 118.992,144.181 117.992,146.181 117.5,148.5C 116.129,150.936 115.129,153.603 114.5,156.5C 112.565,160.895 111.231,165.562 110.5,170.5C 109.215,173.589 108.549,176.922 108.5,180.5C 107,184.326 106.334,188.326 106.5,192.5C 105.508,199.648 105.175,206.981 105.5,214.5C 212.167,214.5 318.833,214.5 425.5,214.5C 425.173,223.682 425.507,232.682 426.5,241.5C 433.833,241.5 441.167,241.5 448.5,241.5C 449.496,226.009 449.83,210.342 449.5,194.5C 466.167,194.5 482.833,194.5 499.5,194.5C 499.3,186.188 497.967,178.188 495.5,170.5C 494.939,165.824 493.606,161.491 491.5,157.5C 491.02,154.557 490.02,151.89 488.5,149.5C 487.686,145.884 486.352,142.551 484.5,139.5C 484.008,137.181 483.008,135.181 481.5,133.5C 481.25,131.326 480.25,129.659 478.5,128.5C 477.773,126.046 476.773,123.713 475.5,121.5C 475.435,121.062 475.601,120.728 476,120.5C 496.764,141.358 513.597,165.024 526.5,191.5 Z"/></g>
<g><path style="opacity:1" fill="#e9535a" d="M 123.5,133.5 C 123.833,133.5 124.167,133.5 124.5,133.5C 182.83,134.833 241.496,135.5 300.5,135.5C 361.091,135.156 421.257,135.156 481,135.5C 481.464,134.906 481.631,134.239 481.5,133.5C 483.008,135.181 484.008,137.181 484.5,139.5C 484.213,141.121 483.213,142.121 481.5,142.5C 361.344,142.495 241.011,142.495 120.5,142.5C 121.213,139.406 122.213,136.406 123.5,133.5 Z"/></g>
<g><path style="opacity:1" fill="#e84d54" d="M 484.5,139.5 C 486.352,142.551 487.686,145.884 488.5,149.5C 426.834,150.167 365.001,150.5 303,150.5C 240.83,150.5 178.996,149.833 117.5,148.5C 117.992,146.181 118.992,144.181 120.5,142.5C 241.011,142.495 361.344,142.495 481.5,142.5C 483.213,142.121 484.213,141.121 484.5,139.5 Z"/></g>
<g><path style="opacity:1" fill="#e8464e" d="M 117.5,148.5 C 178.996,149.833 240.83,150.5 303,150.5C 365.001,150.5 426.834,150.167 488.5,149.5C 490.02,151.89 491.02,154.557 491.5,157.5C 428.834,158.167 366.001,158.5 303,158.5C 239.83,158.5 176.996,157.833 114.5,156.5C 115.129,153.603 116.129,150.936 117.5,148.5 Z"/></g>
<g><path style="opacity:1" fill="#e73e46" d="M 114.5,156.5 C 176.996,157.833 239.83,158.5 303,158.5C 366.001,158.5 428.834,158.167 491.5,157.5C 493.606,161.491 494.939,165.824 495.5,170.5C 367.167,170.5 238.833,170.5 110.5,170.5C 111.231,165.562 112.565,160.895 114.5,156.5 Z"/></g>
<g><path style="opacity:1" fill="#e6363f" d="M 110.5,170.5 C 238.833,170.5 367.167,170.5 495.5,170.5C 497.967,178.188 499.3,186.188 499.5,194.5C 482.833,194.5 466.167,194.5 449.5,194.5C 449.5,189.833 449.5,185.167 449.5,180.5C 441.5,180.5 433.5,180.5 425.5,180.5C 319.833,180.5 214.167,180.5 108.5,180.5C 108.549,176.922 109.215,173.589 110.5,170.5 Z"/></g>
<g><path style="opacity:1" fill="#e5313a" d="M 108.5,180.5 C 214.167,180.5 319.833,180.5 425.5,180.5C 425.5,185.167 425.5,189.833 425.5,194.5C 318.828,195.165 212.495,194.498 106.5,192.5C 106.334,188.326 107,184.326 108.5,180.5 Z"/></g>
<g><path style="opacity:1" fill="#fefcfc" d="M 535.5,216.5 C 518.535,232.965 501.701,249.632 485,266.5C 480,261.5 475,256.5 470,251.5C 469.333,250.5 469.333,249.5 470,248.5C 489.035,229.632 507.868,210.632 526.5,191.5C 527.117,191.389 527.617,191.056 528,190.5C 533.5,196 539,201.5 544.5,207C 541.296,210.036 538.296,213.203 535.5,216.5 Z"/></g>
<g><path style="opacity:1" fill="#f8c4c6" d="M 425.5,180.5 C 433.5,180.5 441.5,180.5 449.5,180.5C 449.5,185.167 449.5,189.833 449.5,194.5C 449.83,210.342 449.496,226.009 448.5,241.5C 448.5,221.5 448.5,201.5 448.5,181.5C 441.167,181.5 433.833,181.5 426.5,181.5C 426.5,201.5 426.5,221.5 426.5,241.5C 425.507,232.682 425.173,223.682 425.5,214.5C 425.5,207.833 425.5,201.167 425.5,194.5C 425.5,189.833 425.5,185.167 425.5,180.5 Z"/></g>
<g><path style="opacity:1" fill="#fefefe" d="M 448.5,241.5 C 441.167,241.5 433.833,241.5 426.5,241.5C 426.5,221.5 426.5,201.5 426.5,181.5C 433.833,181.5 441.167,181.5 448.5,181.5C 448.5,201.5 448.5,221.5 448.5,241.5 Z"/></g>
<g><path style="opacity:1" fill="#e42a33" d="M 106.5,192.5 C 212.495,194.498 318.828,195.165 425.5,194.5C 425.5,201.167 425.5,207.833 425.5,214.5C 318.833,214.5 212.167,214.5 105.5,214.5C 105.175,206.981 105.508,199.648 106.5,192.5 Z"/></g>
<g><path style="opacity:1" fill="#f39a9e" d="M 180.5,236.5 C 188.833,236.5 197.167,236.5 205.5,236.5C 205.5,278.5 205.5,320.5 205.5,362.5C 197.167,362.5 188.833,362.5 180.5,362.5C 180.5,320.5 180.5,278.5 180.5,236.5 Z"/></g>
<g><path style="opacity:1" fill="#fefffe" d="M 181.5,237.5 C 189.167,237.5 196.833,237.5 204.5,237.5C 204.5,278.833 204.5,320.167 204.5,361.5C 196.833,361.5 189.167,361.5 181.5,361.5C 181.5,320.167 181.5,278.833 181.5,237.5 Z"/></g>
<g><path style="opacity:1" fill="#fefcfc" d="M 61.5,341.5 C 40.2575,313.85 40.2575,286.183 61.5,258.5C 69.51,249.823 79.1766,243.656 90.5,240C 128.163,232.995 154.163,247.161 168.5,282.5C 159.833,283.833 151.167,283.833 142.5,282.5C 133.434,267.466 120.101,260.633 102.5,262C 82.8038,266.862 71.8038,279.362 69.5,299.5C 71.2102,319.368 81.5435,332.201 100.5,338C 119.158,340.504 133.158,333.67 142.5,317.5C 151.147,316.335 159.814,316.168 168.5,317C 163.663,332.164 154.663,344.164 141.5,353C 111.737,368.981 85.0707,365.148 61.5,341.5 Z"/></g>
<g><path style="opacity:1" fill="#fefcfc" d="M 302.5,286.5 C 302.5,311.5 302.5,336.5 302.5,361.5C 294.5,361.5 286.5,361.5 278.5,361.5C 278.665,358.482 278.498,355.482 278,352.5C 266.997,359.922 254.83,362.922 241.5,361.5C 234.43,360.38 228.597,357.047 224,351.5C 214.033,331.406 218.866,316.239 238.5,306C 250.116,303.423 261.782,301.09 273.5,299C 280.526,289.804 278.192,284.137 266.5,282C 254.799,279.503 247.799,284.003 245.5,295.5C 237.5,295.5 229.5,295.5 221.5,295.5C 221.363,282.269 227.029,272.436 238.5,266C 254.471,260.102 270.471,260.102 286.5,266C 296.51,269.187 301.843,276.021 302.5,286.5 Z"/></g>
<g><path style="opacity:1" fill="#fefdfd" d="M 343.5,359.5 C 335.903,361.467 327.903,362.134 319.5,361.5C 319.5,329.833 319.5,298.167 319.5,266.5C 327.167,266.5 334.833,266.5 342.5,266.5C 342.335,270.182 342.501,273.848 343,277.5C 351.394,267.22 362.228,262.22 375.5,262.5C 375.5,270.5 375.5,278.5 375.5,286.5C 361.631,284.185 351.464,289.185 345,301.5C 343.55,320.779 343.05,340.112 343.5,359.5 Z"/></g>
<g><path style="opacity:1" fill="#fefcfc" d="M 420.5,261.5 C 458.52,261.687 477.687,280.687 478,318.5C 469.921,351.97 448.755,366.137 414.5,361C 386.291,350.094 374.457,329.594 379,299.5C 386.004,279.328 399.837,266.661 420.5,261.5 Z"/></g>
<g><path style="opacity:1" fill="#fefdfd" d="M 499.5,285.5 C 516.5,285.5 533.5,285.5 550.5,285.5C 554.167,285.5 557.833,285.5 561.5,285.5C 561.825,293.352 561.492,301.018 560.5,308.5C 540.167,308.5 519.833,308.5 499.5,308.5C 499.5,300.833 499.5,293.167 499.5,285.5 Z"/></g>
<g><path style="opacity:1" fill="#e4272e" d="M 422.5,285.5 C 444.36,285.192 454.86,295.858 454,317.5C 449.056,333.56 438.223,340.393 421.5,338C 403.95,331.03 398.116,318.53 404,300.5C 408.375,293.237 414.541,288.237 422.5,285.5 Z"/></g>
<g><path style="opacity:1" fill="#ef868a" d="M 499.5,285.5 C 499.5,293.167 499.5,300.833 499.5,308.5C 519.833,308.5 540.167,308.5 560.5,308.5C 557.375,309.479 554.042,309.813 550.5,309.5C 533.167,309.5 515.833,309.5 498.5,309.5C 498.174,301.316 498.508,293.316 499.5,285.5 Z"/></g>
<g><path style="opacity:1" fill="#e4282f" d="M 274.5,314.5 C 275.5,314.5 276.5,314.5 277.5,314.5C 280.877,335.997 271.877,345.83 250.5,344C 245.523,341.896 243.19,338.062 243.5,332.5C 243.666,325.831 246.999,321.664 253.5,320C 258.761,318.615 264.094,317.615 269.5,317C 271.491,316.626 273.158,315.793 274.5,314.5 Z"/></g>
<g><path style="opacity:1" fill="#e53139" d="M 319.5,266.5 C 319.5,298.167 319.5,329.833 319.5,361.5C 327.903,362.134 335.903,361.467 343.5,359.5C 406.85,379.326 444.516,421.659 456.5,486.5C 455.833,486.5 455.5,486.833 455.5,487.5C 452.287,490.23 449.287,493.23 446.5,496.5C 446.167,496.333 445.833,496.167 445.5,496C 446.655,492.718 447.321,489.552 447.5,486.5C 434.508,425.008 397.841,385.508 337.5,368C 269.34,355.703 216.173,378.203 178,435.5C 166.291,455.732 160.125,477.065 159.5,499.5C 156.869,497.888 154.202,496.221 151.5,494.5C 150.91,493.234 150.41,491.901 150,490.5C 148.421,491.8 147.255,491.466 146.5,489.5C 145.722,487.775 145.389,486.109 145.5,484.5C 156.686,427.07 188.686,386.07 241.5,361.5C 254.83,362.922 266.997,359.922 278,352.5C 278.498,355.482 278.665,358.482 278.5,361.5C 286.5,361.5 294.5,361.5 302.5,361.5C 302.5,336.5 302.5,311.5 302.5,286.5C 303.497,307.327 303.831,328.327 303.5,349.5C 308.493,349.916 313.493,350.249 318.5,350.5C 318.169,322.328 318.502,294.328 319.5,266.5 Z"/></g>
<g><path style="opacity:1" fill="#e4353d" d="M 455.5,487.5 C 455.318,489.591 455.652,491.591 456.5,493.5C 453.972,495.505 454.305,497.171 457.5,498.5C 456.653,500.061 456.986,501.561 458.5,503C 457.177,503.816 456.511,504.983 456.5,506.5C 455.167,507.167 454.167,508.167 453.5,509.5C 451.952,509.821 451.285,510.821 451.5,512.5C 447.935,514.055 444.602,516.055 441.5,518.5C 443.175,515.759 443.842,512.925 443.5,510C 443,509.5 442.5,509 442,508.5C 439.553,511.032 436.886,513.366 434,515.5C 433.686,512.083 434.52,508.916 436.5,506C 436.317,504.316 435.65,504.15 434.5,505.5C 436.054,499.572 436.554,493.572 436,487.5C 426.172,438.004 398.006,403.504 351.5,384C 293.099,365.141 242.932,377.975 201,422.5C 180.22,447.585 170.054,475.419 170.5,506C 171.823,506.816 172.489,507.983 172.5,509.5C 168.833,507.5 165.167,505.5 161.5,503.5C 161.267,501.938 160.6,500.605 159.5,499.5C 160.125,477.065 166.291,455.732 178,435.5C 216.173,378.203 269.34,355.703 337.5,368C 397.841,385.508 434.508,425.008 447.5,486.5C 447.321,489.552 446.655,492.718 445.5,496C 445.833,496.167 446.167,496.333 446.5,496.5C 449.287,493.23 452.287,490.23 455.5,487.5 Z"/></g>
<g><path style="opacity:1" fill="#e63a42" d="M 434.5,505.5 C 432.434,507.199 430.1,508.532 427.5,509.5C 427.911,505.943 429.244,502.776 431.5,500C 423.631,440.469 390.964,402.135 333.5,385C 273.453,374.114 226.619,393.947 193,444.5C 182.219,463.479 176.386,483.646 175.5,505C 177.115,507.342 178.449,509.842 179.5,512.5C 177.548,513.408 175.548,513.241 173.5,512C 172.748,511.329 172.414,510.496 172.5,509.5C 172.489,507.983 171.823,506.816 170.5,506C 170.054,475.419 180.22,447.585 201,422.5C 242.932,377.975 293.099,365.141 351.5,384C 398.006,403.504 426.172,438.004 436,487.5C 436.554,493.572 436.054,499.572 434.5,505.5 Z"/></g>
<g><path style="opacity:1" fill="#e74048" d="M 427.5,509.5 C 426.207,510.842 425.374,512.509 425,514.5C 424.667,514.167 424.333,513.833 424,513.5C 421.692,514.991 419.192,515.991 416.5,516.5C 417.287,513.141 418.62,509.975 420.5,507C 416.784,468.895 399.784,438.228 369.5,415C 325.503,387.667 281.503,387.667 237.5,415C 205.542,439.244 188.876,471.577 187.5,512C 189.058,515.613 190.725,519.113 192.5,522.5C 190.085,521.695 187.751,520.695 185.5,519.5C 184.599,517.273 182.933,516.273 180.5,516.5C 180.768,514.901 180.434,513.568 179.5,512.5C 178.449,509.842 177.115,507.342 175.5,505C 176.386,483.646 182.219,463.479 193,444.5C 226.619,393.947 273.453,374.114 333.5,385C 390.964,402.135 423.631,440.469 431.5,500C 429.244,502.776 427.911,505.943 427.5,509.5 Z"/></g>
<g><path style="opacity:1" fill="#e7474f" d="M 416.5,516.5 C 412.903,518.426 409.903,521.093 407.5,524.5C 404.667,525.28 402,526.114 399.5,527C 401.521,522.307 404.354,518.14 408,514.5C 408.376,463.897 385.209,429.064 338.5,410C 289.94,396.008 249.774,408.508 218,447.5C 203.727,468.582 196.893,491.916 197.5,517.5C 199.422,518.711 201.255,520.044 203,521.5C 204.654,524.828 206.488,527.995 208.5,531C 205.843,530.599 203.176,529.766 200.5,528.5C 200.094,529.557 200.094,530.891 200.5,532.5C 197.453,529.455 194.787,526.122 192.5,522.5C 190.725,519.113 189.058,515.613 187.5,512C 188.876,471.577 205.542,439.244 237.5,415C 281.503,387.667 325.503,387.667 369.5,415C 399.784,438.228 416.784,468.895 420.5,507C 418.62,509.975 417.287,513.141 416.5,516.5 Z"/></g>
<g><path style="opacity:1" fill="#e84d55" d="M 407.5,524.5 C 407.768,526.099 407.434,527.432 406.5,528.5C 404.359,531.472 401.692,533.972 398.5,536C 395.929,536.901 393.596,538.234 391.5,540C 389.934,540.765 388.601,540.598 387.5,539.5C 390.076,537.324 392.409,534.824 394.5,532C 391.717,532.59 388.883,533.423 386,534.5C 385.5,534.167 385,533.833 384.5,533.5C 385.834,533.471 387.167,532.637 388.5,531C 388.167,530.667 387.833,530.333 387.5,530C 389.751,528.588 391.418,526.754 392.5,524.5C 392.851,522.54 394.184,520.707 396.5,519C 399.28,477.244 382.28,445.911 345.5,425C 300.321,406.566 261.488,415.399 229,451.5C 213.789,472.008 207.455,495.008 210,520.5C 211.049,522.618 212.549,524.284 214.5,525.5C 216.521,530.03 219.521,533.863 223.5,537C 219.6,535.78 215.933,535.114 212.5,535C 215.371,537.703 218.038,540.536 220.5,543.5C 216.853,543.231 213.686,541.898 211,539.5C 209.97,539.836 209.47,540.503 209.5,541.5C 208.761,541.631 208.094,541.464 207.5,541C 206.711,538.635 205.544,536.468 204,534.5C 203.184,533.177 202.017,532.511 200.5,532.5C 200.094,530.891 200.094,529.557 200.5,528.5C 203.176,529.766 205.843,530.599 208.5,531C 206.488,527.995 204.654,524.828 203,521.5C 201.255,520.044 199.422,518.711 197.5,517.5C 196.893,491.916 203.727,468.582 218,447.5C 249.774,408.508 289.94,396.008 338.5,410C 385.209,429.064 408.376,463.897 408,514.5C 404.354,518.14 401.521,522.307 399.5,527C 402,526.114 404.667,525.28 407.5,524.5 Z"/></g>
<g><path style="opacity:1" fill="#e9535b" d="M 392.5,524.5 C 392.631,523.761 392.464,523.094 392,522.5C 390.416,523.861 388.582,524.528 386.5,524.5C 393.152,490.92 383.152,463.086 356.5,441C 329.515,421.94 300.515,418.273 269.5,430C 231.74,448.667 214.574,479.167 218,521.5C 219.32,523.979 220.82,526.313 222.5,528.5C 219.645,527.883 216.978,526.883 214.5,525.5C 212.549,524.284 211.049,522.618 210,520.5C 207.455,495.008 213.789,472.008 229,451.5C 261.488,415.399 300.321,406.566 345.5,425C 382.28,445.911 399.28,477.244 396.5,519C 394.184,520.707 392.851,522.54 392.5,524.5 Z"/></g>
<g><path style="opacity:1" fill="#ea5960" d="M 386.5,524.5 C 384.862,526.301 383.029,527.967 381,529.5C 380.439,528.978 379.772,528.645 379,528.5C 376.846,529.274 374.679,529.941 372.5,530.5C 374.939,528.835 376.439,526.502 377,523.5C 381.675,480.192 363.508,451.358 322.5,437C 289.509,430.218 262.675,440.051 242,466.5C 229.511,485.586 225.844,506.252 231,528.5C 232.102,529.949 233.269,531.282 234.5,532.5C 233.427,533.658 232.261,533.658 231,532.5C 230.05,533.022 229.216,533.689 228.5,534.5C 226.812,532.146 224.812,530.146 222.5,528.5C 220.82,526.313 219.32,523.979 218,521.5C 214.574,479.167 231.74,448.667 269.5,430C 300.515,418.273 329.515,421.94 356.5,441C 383.152,463.086 393.152,490.92 386.5,524.5 Z"/></g>
<g><path style="opacity:1" fill="#eb6067" d="M 372.5,530.5 C 370.125,531.902 367.791,533.235 365.5,534.5C 363.25,533.995 361.083,534.662 359,536.5C 358.601,536.272 358.435,535.938 358.5,535.5C 360.713,533.022 363.046,530.522 365.5,528C 372.729,494.997 362.063,469.664 333.5,452C 301.108,438.275 273.608,444.775 251,471.5C 239.014,490.041 235.847,510.041 241.5,531.5C 244.49,533.485 247.49,535.485 250.5,537.5C 247.959,537.15 245.626,537.15 243.5,537.5C 240.409,536.023 237.409,534.356 234.5,532.5C 233.269,531.282 232.102,529.949 231,528.5C 225.844,506.252 229.511,485.586 242,466.5C 262.675,440.051 289.509,430.218 322.5,437C 363.508,451.358 381.675,480.192 377,523.5C 376.439,526.502 374.939,528.835 372.5,530.5 Z"/></g>
<g><path style="opacity:1" fill="#ec676d" d="M 358.5,535.5 C 354.964,536.379 351.631,537.713 348.5,539.5C 348.565,539.062 348.399,538.728 348,538.5C 345.037,540.244 341.871,540.744 338.5,540C 348.076,537.758 353.909,531.925 356,522.5C 361.018,489.55 347.851,467.717 316.5,457C 290.174,452.098 270.008,460.932 256,483.5C 247.773,500.011 247.44,516.678 255,533.5C 259.742,536.456 264.575,539.289 269.5,542C 265.54,541.745 261.54,541.245 257.5,540.5C 255.419,539.01 253.086,538.01 250.5,537.5C 247.49,535.485 244.49,533.485 241.5,531.5C 235.847,510.041 239.014,490.041 251,471.5C 273.608,444.775 301.108,438.275 333.5,452C 362.063,469.664 372.729,494.997 365.5,528C 363.046,530.522 360.713,533.022 358.5,535.5 Z"/></g>
<g><path style="opacity:1" fill="#eb6c72" d="M 348.5,539.5 C 346.123,542.027 343.29,544.027 340,545.5C 332.988,547.815 325.988,550.148 319,552.5C 309.995,552.584 300.829,552.417 291.5,552C 287.821,551.165 284.155,550.332 280.5,549.5C 279.914,549.709 279.414,550.043 279,550.5C 271.727,547.311 264.56,543.978 257.5,540.5C 261.54,541.245 265.54,541.745 269.5,542C 264.575,539.289 259.742,536.456 255,533.5C 247.44,516.678 247.773,500.011 256,483.5C 270.008,460.932 290.174,452.098 316.5,457C 347.851,467.717 361.018,489.55 356,522.5C 353.909,531.925 348.076,537.758 338.5,540C 341.871,540.744 345.037,540.244 348,538.5C 348.399,538.728 348.565,539.062 348.5,539.5 Z"/></g>
<g><path style="opacity:1" fill="#ed747a" d="M 293.5,465.5 C 306.554,463.567 318.554,466.067 329.5,473C 333.355,477.853 337.522,482.353 342,486.5C 342.89,491.175 344.556,495.508 347,499.5C 348.093,508.658 347.426,517.658 345,526.5C 342.742,529.085 340.909,531.918 339.5,535C 327.431,541.716 314.097,544.549 299.5,543.5C 288.053,542.998 277.387,540.498 267.5,536C 259.458,523.564 257.291,510.064 261,495.5C 263.014,491.473 265.014,487.473 267,483.5C 271.167,480.667 274.667,477.167 277.5,473C 282.699,470.019 288.032,467.519 293.5,465.5 Z"/></g>
<g><path style="opacity:1" fill="#d53138" d="M 161.5,503.5 C 165.167,505.5 168.833,507.5 172.5,509.5C 172.414,510.496 172.748,511.329 173.5,512C 175.548,513.241 177.548,513.408 179.5,512.5C 180.434,513.568 180.768,514.901 180.5,516.5C 182.933,516.273 184.599,517.273 185.5,519.5C 184.876,519.917 184.543,520.584 184.5,521.5C 185.217,524.15 186.383,526.817 188,529.5C 184.973,527.913 182.14,526.246 179.5,524.5C 179.67,525.822 179.337,526.989 178.5,528C 180.65,529.192 181.317,530.692 180.5,532.5C 176.997,531.498 173.83,529.831 171,527.5C 170.5,528 170,528.5 169.5,529C 170.869,531.596 172.536,534.263 174.5,537C 174.354,538.727 173.687,538.894 172.5,537.5C 171.614,536.675 171.281,535.675 171.5,534.5C 167.084,533.731 163.084,532.064 159.5,529.5C 158.89,527.566 157.89,525.899 156.5,524.5C 156.611,523.883 156.944,523.383 157.5,523C 156.142,518.935 154.476,514.935 152.5,511C 153.668,509.594 153.335,508.428 151.5,507.5C 152.365,507.436 153.365,507.103 154.5,506.5C 161.019,512.407 163.352,511.407 161.5,503.5 Z"/></g>
<g><path style="opacity:1" fill="#d93a41" d="M 441.5,518.5 C 439.659,519.402 438.326,520.736 437.5,522.5C 434.806,524.514 431.806,526.014 428.5,527C 425.715,529.436 423.048,531.936 420.5,534.5C 420.44,533.957 420.107,533.624 419.5,533.5C 416.727,534.97 413.894,536.303 411,537.5C 410.5,537.167 410,536.833 409.5,536.5C 412.281,534.309 413.281,531.642 412.5,528.5C 410.772,530.226 408.772,531.559 406.5,532.5C 405.708,531.3 405.708,529.967 406.5,528.5C 407.434,527.432 407.768,526.099 407.5,524.5C 409.903,521.093 412.903,518.426 416.5,516.5C 419.192,515.991 421.692,514.991 424,513.5C 424.333,513.833 424.667,514.167 425,514.5C 425.374,512.509 426.207,510.842 427.5,509.5C 430.1,508.532 432.434,507.199 434.5,505.5C 435.65,504.15 436.317,504.316 436.5,506C 434.52,508.916 433.686,512.083 434,515.5C 436.886,513.366 439.553,511.032 442,508.5C 442.5,509 443,509.5 443.5,510C 443.842,512.925 443.175,515.759 441.5,518.5 Z"/></g>
<g><path style="opacity:1" fill="#d53c43" d="M 185.5,519.5 C 187.751,520.695 190.085,521.695 192.5,522.5C 194.787,526.122 197.453,529.455 200.5,532.5C 202.017,532.511 203.184,533.177 204,534.5C 205.544,536.468 206.711,538.635 207.5,541C 208.094,541.464 208.761,541.631 209.5,541.5C 211.295,544.171 213.628,546.338 216.5,548C 215.975,548.692 215.308,549.192 214.5,549.5C 212.265,548.248 209.931,547.748 207.5,548C 208.833,548.667 208.833,549.333 207.5,550C 210.464,552.292 213.131,554.792 215.5,557.5C 210.276,556.372 205.442,554.372 201,551.5C 200.601,551.728 200.435,552.062 200.5,552.5C 195.199,549.484 191.199,545.151 188.5,539.5C 186.695,538.528 185.028,537.361 183.5,536C 183.833,535.667 184.167,535.333 184.5,535C 183.307,533.905 181.973,533.072 180.5,532.5C 181.317,530.692 180.65,529.192 178.5,528C 179.337,526.989 179.67,525.822 179.5,524.5C 182.14,526.246 184.973,527.913 188,529.5C 186.383,526.817 185.217,524.15 184.5,521.5C 184.543,520.584 184.876,519.917 185.5,519.5 Z"/></g>
<g><path style="opacity:1" fill="#cf3e44" d="M 406.5,528.5 C 405.708,529.967 405.708,531.3 406.5,532.5C 408.772,531.559 410.772,530.226 412.5,528.5C 413.281,531.642 412.281,534.309 409.5,536.5C 410,536.833 410.5,537.167 411,537.5C 413.894,536.303 416.727,534.97 419.5,533.5C 420.107,533.624 420.44,533.957 420.5,534.5C 419.373,535.122 418.373,535.955 417.5,537C 417.5,538.333 417.5,539.667 417.5,541C 413.116,545.702 408.116,549.702 402.5,553C 403.833,554.84 403.666,555.34 402,554.5C 399.604,557.31 397.104,559.977 394.5,562.5C 390.703,563.311 387.369,564.978 384.5,567.5C 383.504,567.586 382.671,567.252 382,566.5C 379.727,568.496 376.727,570.163 373,571.5C 372.667,571.167 372.333,570.833 372,570.5C 368.333,571.833 364.667,573.167 361,574.5C 360.283,573.956 359.783,573.289 359.5,572.5C 366.944,569.918 373.944,566.584 380.5,562.5C 380.719,561.325 380.386,560.325 379.5,559.5C 375.787,561.223 372.287,562.557 369,563.5C 368.5,563 368,562.5 367.5,562C 373.167,558.333 378.833,554.667 384.5,551C 379.118,551.241 374.284,553.074 370,556.5C 369.259,555.359 368.425,555.359 367.5,556.5C 366.702,556.043 366.369,555.376 366.5,554.5C 369.588,554.803 371.254,553.47 371.5,550.5C 373.677,550.414 375.677,549.747 377.5,548.5C 379.687,546.15 382.187,544.15 385,542.5C 385.667,541.167 386.333,539.833 387,538.5C 387.399,538.728 387.565,539.062 387.5,539.5C 388.601,540.598 389.934,540.765 391.5,540C 393.596,538.234 395.929,536.901 398.5,536C 401.692,533.972 404.359,531.472 406.5,528.5 Z"/></g>
<g><path style="opacity:0.998" fill="#c02c31" d="M 437.5,522.5 C 437.011,523.736 437.011,525.236 437.5,527C 434.941,528.323 434.275,530.157 435.5,532.5C 439.496,528.685 443.829,526.018 448.5,524.5C 448.158,527.145 446.825,529.645 444.5,532C 444.966,533.299 444.966,534.799 444.5,536.5C 441.411,541.25 437.744,546.083 433.5,551C 436.088,550.243 438.754,549.243 441.5,548C 445.307,545.69 448.974,543.19 452.5,540.5C 453.167,540.833 453.833,541.167 454.5,541.5C 452.624,542.99 451.957,544.657 452.5,546.5C 451.711,546.783 451.044,547.283 450.5,548C 450.835,549.503 450.835,550.836 450.5,552C 446.861,556.67 442.528,560.67 437.5,564C 438.448,564.483 439.448,564.649 440.5,564.5C 427.477,571.842 413.811,577.842 399.5,582.5C 399.918,581.778 400.584,581.278 401.5,581C 399.699,580.683 399.366,580.016 400.5,579C 406.863,577.005 411.863,573.338 415.5,568C 418.863,564.978 422.53,562.312 426.5,560C 425.542,558.853 425.875,557.853 427.5,557C 424.16,558.093 420.827,559.593 417.5,561.5C 416.914,561.291 416.414,560.957 416,560.5C 413.463,563.046 410.463,564.712 407,565.5C 406.878,563.831 407.212,562.165 408,560.5C 410.333,559.5 412,557.833 413,555.5C 413.333,555.833 413.667,556.167 414,556.5C 414.591,555.517 414.257,554.85 413,554.5C 406.922,557.421 400.756,560.088 394.5,562.5C 397.104,559.977 399.604,557.31 402,554.5C 403.666,555.34 403.833,554.84 402.5,553C 408.116,549.702 413.116,545.702 417.5,541C 417.5,539.667 417.5,538.333 417.5,537C 418.373,535.955 419.373,535.122 420.5,534.5C 423.048,531.936 425.715,529.436 428.5,527C 431.806,526.014 434.806,524.514 437.5,522.5 Z"/></g>
<g><path style="opacity:0.999" fill="#c02b31" d="M 180.5,532.5 C 181.973,533.072 183.307,533.905 184.5,535C 184.167,535.333 183.833,535.667 183.5,536C 185.028,537.361 186.695,538.528 188.5,539.5C 191.199,545.151 195.199,549.484 200.5,552.5C 205.517,557.517 210.851,562.183 216.5,566.5C 216.167,566.833 215.833,567.167 215.5,567.5C 210.035,563.959 204.201,561.293 198,559.5C 196.941,559.63 196.108,560.13 195.5,561C 197.67,562.586 200.004,563.92 202.5,565C 201.639,567.321 202.639,568.487 205.5,568.5C 201.565,569.637 198.065,568.637 195,565.5C 192.909,566.5 191.243,565.833 190,563.5C 187.438,563.738 185.104,562.738 183,560.5C 182.5,561 182,561.5 181.5,562C 184.041,564.833 186.541,567.666 189,570.5C 189.333,569.833 189.667,569.167 190,568.5C 190.973,570.64 192.473,572.307 194.5,573.5C 194.291,574.086 193.957,574.586 193.5,575C 197.949,576.636 201.782,579.136 205,582.5C 205.333,582.167 205.667,581.833 206,581.5C 206.47,582.577 206.303,583.577 205.5,584.5C 190.452,580.045 176.119,574.045 162.5,566.5C 163.048,565.312 163.381,564.145 163.5,563C 161.172,559.484 158.505,556.318 155.5,553.5C 155.611,552.883 155.944,552.383 156.5,552C 152.487,549.901 151.654,547.401 154,544.5C 158.693,546.521 162.86,549.354 166.5,553C 169.298,554.914 172.298,555.914 175.5,556C 174.167,555 172.833,554 171.5,553C 171.833,552.667 172.167,552.333 172.5,552C 170.125,548.496 167.459,545.329 164.5,542.5C 163.525,540.807 162.192,539.307 160.5,538C 160.833,537.667 161.167,537.333 161.5,537C 158.833,535.667 158.833,534.333 161.5,533C 160.177,532.184 159.511,531.017 159.5,529.5C 163.084,532.064 167.084,533.731 171.5,534.5C 171.281,535.675 171.614,536.675 172.5,537.5C 173.687,538.894 174.354,538.727 174.5,537C 172.536,534.263 170.869,531.596 169.5,529C 170,528.5 170.5,528 171,527.5C 173.83,529.831 176.997,531.498 180.5,532.5 Z"/></g>
<g><path style="opacity:1" fill="#d65056" d="M 392.5,524.5 C 391.418,526.754 389.751,528.588 387.5,530C 387.833,530.333 388.167,530.667 388.5,531C 387.167,532.637 385.834,533.471 384.5,533.5C 385,533.833 385.5,534.167 386,534.5C 388.883,533.423 391.717,532.59 394.5,532C 392.409,534.824 390.076,537.324 387.5,539.5C 387.565,539.062 387.399,538.728 387,538.5C 386.333,539.833 385.667,541.167 385,542.5C 382.187,544.15 379.687,546.15 377.5,548.5C 375.677,549.747 373.677,550.414 371.5,550.5C 371.254,553.47 369.588,554.803 366.5,554.5C 361.309,557.848 355.975,561.014 350.5,564C 341.217,566.377 332.55,569.21 324.5,572.5C 323.707,572.069 322.873,571.735 322,571.5C 307.485,573.419 292.985,573.586 278.5,572C 276.715,570.837 274.715,570.17 272.5,570C 272.833,569.667 273.167,569.333 273.5,569C 263.786,567.567 255.12,565.067 247.5,561.5C 247.5,560.5 247.5,559.5 247.5,558.5C 241.238,558.288 236.405,555.622 233,550.5C 232.667,550.833 232.333,551.167 232,551.5C 229.179,549.678 226.679,547.511 224.5,545C 223.255,544.209 221.922,543.709 220.5,543.5C 218.038,540.536 215.371,537.703 212.5,535C 215.933,535.114 219.6,535.78 223.5,537C 219.521,533.863 216.521,530.03 214.5,525.5C 216.978,526.883 219.645,527.883 222.5,528.5C 224.812,530.146 226.812,532.146 228.5,534.5C 229.216,533.689 230.05,533.022 231,532.5C 232.261,533.658 233.427,533.658 234.5,532.5C 237.409,534.356 240.409,536.023 243.5,537.5C 247.395,541.793 252.061,545.126 257.5,547.5C 257.333,547.833 257.167,548.167 257,548.5C 254.667,547.833 252.333,547.167 250,546.5C 249.5,547 249,547.5 248.5,548C 272.273,560.922 297.606,564.922 324.5,560C 337.315,556.979 348.982,552.312 359.5,546C 358.448,544.881 357.281,544.381 356,544.5C 353.817,546.183 351.65,546.85 349.5,546.5C 355.617,543.452 360.951,539.452 365.5,534.5C 367.791,533.235 370.125,531.902 372.5,530.5C 374.679,529.941 376.846,529.274 379,528.5C 379.772,528.645 380.439,528.978 381,529.5C 383.029,527.967 384.862,526.301 386.5,524.5C 388.582,524.528 390.416,523.861 392,522.5C 392.464,523.094 392.631,523.761 392.5,524.5 Z"/></g>
<g><path style="opacity:1" fill="#df5e64" d="M 365.5,534.5 C 360.951,539.452 355.617,543.452 349.5,546.5C 351.65,546.85 353.817,546.183 356,544.5C 357.281,544.381 358.448,544.881 359.5,546C 348.982,552.312 337.315,556.979 324.5,560C 297.606,564.922 272.273,560.922 248.5,548C 249,547.5 249.5,547 250,546.5C 252.333,547.167 254.667,547.833 257,548.5C 257.167,548.167 257.333,547.833 257.5,547.5C 252.061,545.126 247.395,541.793 243.5,537.5C 245.626,537.15 247.959,537.15 250.5,537.5C 253.086,538.01 255.419,539.01 257.5,540.5C 264.56,543.978 271.727,547.311 279,550.5C 279.414,550.043 279.914,549.709 280.5,549.5C 284.155,550.332 287.821,551.165 291.5,552C 300.829,552.417 309.995,552.584 319,552.5C 325.988,550.148 332.988,547.815 340,545.5C 343.29,544.027 346.123,542.027 348.5,539.5C 351.631,537.713 354.964,536.379 358.5,535.5C 358.435,535.938 358.601,536.272 359,536.5C 361.083,534.662 363.25,533.995 365.5,534.5 Z"/></g>
<g><path style="opacity:1" fill="#cd454a" d="M 220.5,543.5 C 221.922,543.709 223.255,544.209 224.5,545C 226.679,547.511 229.179,549.678 232,551.5C 232.333,551.167 232.667,550.833 233,550.5C 236.405,555.622 241.238,558.288 247.5,558.5C 247.5,559.5 247.5,560.5 247.5,561.5C 255.12,565.067 263.786,567.567 273.5,569C 273.167,569.333 272.833,569.667 272.5,570C 274.715,570.17 276.715,570.837 278.5,572C 292.985,573.586 307.485,573.419 322,571.5C 322.873,571.735 323.707,572.069 324.5,572.5C 332.55,569.21 341.217,566.377 350.5,564C 355.975,561.014 361.309,557.848 366.5,554.5C 366.369,555.376 366.702,556.043 367.5,556.5C 368.425,555.359 369.259,555.359 370,556.5C 374.284,553.074 379.118,551.241 384.5,551C 378.833,554.667 373.167,558.333 367.5,562C 368,562.5 368.5,563 369,563.5C 372.287,562.557 375.787,561.223 379.5,559.5C 380.386,560.325 380.719,561.325 380.5,562.5C 373.944,566.584 366.944,569.918 359.5,572.5C 333.916,583.448 306.916,586.948 278.5,583C 265.883,580.186 253.549,576.519 241.5,572C 233.233,567.643 224.566,562.81 215.5,557.5C 213.131,554.792 210.464,552.292 207.5,550C 208.833,549.333 208.833,548.667 207.5,548C 209.931,547.748 212.265,548.248 214.5,549.5C 215.308,549.192 215.975,548.692 216.5,548C 213.628,546.338 211.295,544.171 209.5,541.5C 209.47,540.503 209.97,539.836 211,539.5C 213.686,541.898 216.853,543.231 220.5,543.5 Z"/></g>
<g><path style="opacity:1" fill="#c1373d" d="M 215.5,557.5 C 224.566,562.81 233.233,567.643 241.5,572C 253.549,576.519 265.883,580.186 278.5,583C 306.916,586.948 333.916,583.448 359.5,572.5C 359.783,573.289 360.283,573.956 361,574.5C 364.667,573.167 368.333,571.833 372,570.5C 372.333,570.833 372.667,571.167 373,571.5C 376.727,570.163 379.727,568.496 382,566.5C 382.671,567.252 383.504,567.586 384.5,567.5C 380.922,569.205 377.589,571.372 374.5,574C 371.809,573.946 369.976,575.113 369,577.5C 367.333,577.5 365.667,577.5 364,577.5C 363.1,578.77 361.934,579.77 360.5,580.5C 360.667,580.833 360.833,581.167 361,581.5C 369.712,578.561 378.545,576.394 387.5,575C 380.109,578.887 372.275,582.72 364,586.5C 363.667,586.167 363.333,585.833 363,585.5C 362.097,586.701 360.931,587.535 359.5,588C 331.723,595.058 303.39,596.891 274.5,593.5C 273.833,593.833 273.167,594.167 272.5,594.5C 265.194,592.939 257.86,591.439 250.5,590C 244.336,587.278 238.002,584.944 231.5,583C 227.407,580.855 223.407,578.521 219.5,576C 217.965,575.504 216.465,575.67 215,576.5C 210.997,574.608 207.831,571.941 205.5,568.5C 202.639,568.487 201.639,567.321 202.5,565C 200.004,563.92 197.67,562.586 195.5,561C 196.108,560.13 196.941,559.63 198,559.5C 204.201,561.293 210.035,563.959 215.5,567.5C 215.833,567.167 216.167,566.833 216.5,566.5C 210.851,562.183 205.517,557.517 200.5,552.5C 200.435,552.062 200.601,551.728 201,551.5C 205.442,554.372 210.276,556.372 215.5,557.5 Z"/></g>
<g><path style="opacity:0.999" fill="#bc3137" d="M 399.5,582.5 C 374.89,591.488 349.556,597.155 323.5,599.5C 307.5,599.5 291.5,599.5 275.5,599.5C 251.58,597.316 228.247,592.316 205.5,584.5C 206.303,583.577 206.47,582.577 206,581.5C 205.667,581.833 205.333,582.167 205,582.5C 201.782,579.136 197.949,576.636 193.5,575C 193.957,574.586 194.291,574.086 194.5,573.5C 192.473,572.307 190.973,570.64 190,568.5C 189.667,569.167 189.333,569.833 189,570.5C 186.541,567.666 184.041,564.833 181.5,562C 182,561.5 182.5,561 183,560.5C 185.104,562.738 187.438,563.738 190,563.5C 191.243,565.833 192.909,566.5 195,565.5C 198.065,568.637 201.565,569.637 205.5,568.5C 207.831,571.941 210.997,574.608 215,576.5C 216.465,575.67 217.965,575.504 219.5,576C 223.407,578.521 227.407,580.855 231.5,583C 238.002,584.944 244.336,587.278 250.5,590C 257.86,591.439 265.194,592.939 272.5,594.5C 273.167,594.167 273.833,593.833 274.5,593.5C 303.39,596.891 331.723,595.058 359.5,588C 360.931,587.535 362.097,586.701 363,585.5C 363.333,585.833 363.667,586.167 364,586.5C 372.275,582.72 380.109,578.887 387.5,575C 378.545,576.394 369.712,578.561 361,581.5C 360.833,581.167 360.667,580.833 360.5,580.5C 361.934,579.77 363.1,578.77 364,577.5C 365.667,577.5 367.333,577.5 369,577.5C 369.976,575.113 371.809,573.946 374.5,574C 377.589,571.372 380.922,569.205 384.5,567.5C 387.369,564.978 390.703,563.311 394.5,562.5C 400.756,560.088 406.922,557.421 413,554.5C 414.257,554.85 414.591,555.517 414,556.5C 413.667,556.167 413.333,555.833 413,555.5C 412,557.833 410.333,559.5 408,560.5C 407.212,562.165 406.878,563.831 407,565.5C 410.463,564.712 413.463,563.046 416,560.5C 416.414,560.957 416.914,561.291 417.5,561.5C 420.827,559.593 424.16,558.093 427.5,557C 425.875,557.853 425.542,558.853 426.5,560C 422.53,562.312 418.863,564.978 415.5,568C 411.863,573.338 406.863,577.005 400.5,579C 399.366,580.016 399.699,580.683 401.5,581C 400.584,581.278 399.918,581.778 399.5,582.5 Z"/></g>
</svg>
